/* XPM */
static char *result[] = {
/* columns rows colors chars-per-pixel */
"48 48 149 2 ",
"   c #030005",
".  c #03010A",
"X  c #14040E",
"o  c #060315",
"O  c #0D0415",
"+  c #070218",
"@  c #0C051A",
"#  c #0D0D1E",
"$  c #140814",
"%  c #160C1D",
"&  c #1B0D1D",
"*  c #25111F",
"=  c #31151D",
"-  c #391A1A",
";  c #060F26",
":  c #09132E",
">  c #0E1B2A",
",  c #1D1122",
"<  c #191B31",
"1  c #2F1620",
"2  c #2A1B27",
"3  c #2C1F28",
"4  c #221B29",
"5  c #301620",
"6  c #341922",
"7  c #3A1C23",
"8  c #391F28",
"9  c #0F252F",
"0  c #0F2532",
"q  c #2E2028",
"w  c #3E2026",
"e  c #34212B",
"r  c #3C242D",
"t  c #352730",
"y  c #393738",
"u  c #3A3A3A",
"i  c #47221E",
"p  c #462023",
"a  c #4D2525",
"s  c #4A2F2F",
"d  c #512626",
"f  c #532A2B",
"g  c #5E2C28",
"h  c #4C312F",
"j  c #432A31",
"k  c #4C3538",
"l  c #543132",
"z  c #5C3332",
"x  c #5F3B3C",
"c  c #642E28",
"v  c #662C24",
"b  c #62322D",
"n  c #633431",
"m  c #673936",
"M  c #693B36",
"N  c #643E3D",
"B  c #683D3A",
"V  c #6E423F",
"C  c #63473E",
"Z  c #70433F",
"A  c #033157",
"S  c #083B58",
"D  c #04325B",
"F  c #343D50",
"G  c #063661",
"H  c #114245",
"J  c #104B4C",
"K  c #16594C",
"L  c #1E704E",
"P  c #16486B",
"I  c #1A466B",
"U  c #054D7C",
"Y  c #044271",
"T  c #164B72",
"R  c #3A5A72",
"E  c #6E4441",
"W  c #644A40",
"Q  c #6C4F44",
"!  c #704643",
"~  c #734844",
"^  c #6D5144",
"/  c #745647",
"(  c #796259",
")  c #73775F",
"_  c #747D5D",
"`  c #404E61",
"'  c #737860",
"]  c #787F61",
"[  c #707465",
"{  c #805F4C",
"}  c #82614F",
"|  c #856552",
" . c #81675C",
".. c #977156",
"X. c #987257",
"o. c #997258",
"O. c #A67D5D",
"+. c #957969",
"@. c #2D8B4A",
"#. c #2E904A",
"$. c #349D49",
"%. c #7C8E62",
"&. c #728C7B",
"*. c #8C8F78",
"=. c #B68B68",
"-. c #B88B65",
";. c #B79275",
":. c #BB9576",
">. c #B8967C",
",. c #8FA871",
"<. c #90AA71",
"1. c #97B577",
"2. c #C8976B",
"3. c #CE9C6E",
"4. c #D4A071",
"5. c #D7A97F",
"6. c #DEAB7D",
"7. c #D8A472",
"8. c #125180",
"9. c #1A6087",
"0. c #097C9A",
"q. c #26658B",
"w. c #076BA8",
"e. c #0076B6",
"r. c #0079BC",
"t. c #169796",
"y. c #2B9790",
"u. c #2980B1",
"i. c #678B9C",
"p. c #67A2B4",
"a. c #0D8AC5",
"s. c #0085CF",
"d. c #0194DA",
"f. c #0099DF",
"g. c #299BCC",
"h. c #83AFB9",
"j. c #C9A382",
"k. c #D0A988",
"l. c #D8AA81",
"z. c #E8B788",
"x. c #E4BC96",
"c. c #CFBCA3",
"v. c #F3C599",
"b. c #F7CA9F",
"n. c #F8CA9F",
"m. c #CFC2A8",
"M. c #F9CDA1",
"N. c #FFD5A3",
"B. c None",
/* pixels */
"B.B.B.B.B.B.B.B.B.B.B.B.B.B.B.B.B.B.B.B.B.B.B.B.B.B.B.B.B.B.B.B.B.B.B.B.B.B.B.B.B.B.B.B.B.B.B.B.",
"B.B.B.B.B.B.B.B.B.B.B.B.B.B.B.B.B.B.B.B.B.B.B.B.B.B.B.B.B.B.B.B.B.B.B.B.B.B.B.B.B.B.B.B.B.B.B.B.",
"B.B.B.B.B.B.B.B.B.B.B.B.B.B.B.B.B.B.B.B.B.B.B.B.B.B.B.B.B.B.B.B.B.B.B.B.B.B.B.B.B.B.B.B.B.B.B.B.",
"B.B.B.B.B.B.B.B.B.B.B.B.B.B.B.B.B.B.B.B.B.B.B.B.B.B.B.B.B.B.B.B.B.B.B.B.B.B.B.B.B.B.B.B.B.B.B.B.",
"B.B.B.B.B.B.B.B.B.B.B.B.B.B.B.B.B.B.B.B.+ + + + + + + + + B.B.B.B.B.B.B.B.B.B.B.B.B.B.B.B.B.B.B.",
"B.B.B.B.B.B.B.B.B.B.B.B.B.B.B.B.B.B.B.% & & & , , , , , & & B.B.B.B.B.B.B.B.B.B.B.B.B.B.B.B.B.B.",
"B.B.B.B.B.B.B.B.B.B.B.B.B.B.B.B.B.B.@ = d d l N N x x x z p & B.B.B.B.B.B.B.B.B.B.B.B.B.B.B.B.B.",
"B.B.B.B.B.B.B.B.B.B.B.B.B.B.B.B.B.% r l M M Z ~ ~ ~ ~ ~ V n 7 * B.B.B.B.B.B.B.B.B.B.B.B.B.B.B.B.",
"B.B.B.B.B.B.B.B.B.B.B.B.B.B.B.B.% 2 N ~ ! ! ! ! E ~ ! ! ! V n 6 @ B.B.B.B.B.B.B.B.B.B.B.B.B.B.B.",
"B.B.B.B.B.B.B.B.B.B.B.B.B.B.B.% e N E ~ ! ! ! ! ! E ! ! ! ! E r @ B.B.B.B.B.B.B.B.B.B.B.B.B.B.B.",
"B.B.B.B.B.B.B.B.B.B.B.B.B.B.B.@ r ~ ~ E ! ! ! ! ~ ! ~ ~ ~ ~ ~ l 6 & B.B.B.B.B.B.B.B.B.B.B.B.B.B.",
"B.B.B.B.B.B.B.B.B.B.B.B.B.B.B.@ r ~ ! E V V ! ! V C x x N V ! m d & + B.B.B.B.B.B.B.B.B.B.B.B.B.",
"B.B.B.B.B.B.B.B.B.B.B.B.B.B.B.@ r ~ ~ B b E ~ V n 7 & & 7 n ! M d & + B.B.B.B.B.B.B.B.B.B.B.B.B.",
"B.B.B.B.B.B.B.B.B.B.B.B.B.B.B.@ r m m b b V ! z 7 h ^ Q h 5 r f d & + B.B.B.B.B.B.B.B.B.B.B.B.B.",
"B.B.B.B.B.B.B.B.B.B.B.B.B.B.B.@ 6 g g d f B z p e | 6.6.| 2 % 5 p & B.B.B.B.B.B.B.B.B.B.B.B.B.B.",
"B.B.B.B.B.B.B.B.B.B.B.B.B.B.B.@ 6 g g 7 * f 7 8 ..5.v.v.l...2 @ & B.B.B.B.B.B.B.B.B.B.B.B.B.B.B.",
"B.B.B.B.B.B.B.B.B.B.B.B.B.B.B.@ 8 z 7 l C 7 s ^ / ;.M.M.:.W , + B.B.B.B.B.B.B.B.B.B.B.B.B.B.B.B.",
"B.B.B.B.B.B.B.B.B.B.B.B.B.B.B.# j x , / -.k | =.e ( M.M.( @ # B.B.B.B.B.B.B.B.B.B.B.B.B.B.B.B.B.",
"B.B.B.B.B.B.B.B.B.B.B.B.B.B.B.@ j N , ^ 3.-.5.j.e ( M.M. .+ @ B.B.B.B.B.B.B.B.B.B.B.B.B.B.B.B.B.",
"B.B.B.B.B.B.B.B.B.B.B.B.B.B.B.B.2 j ^ O.4.7.z.x.+.>.M.M.:.C , + B.B.B.B.B.B.B.B.B.B.B.B.B.B.B.B.",
"B.B.B.B.B.B.B.B.B.B.B.B.B.B.B.B.B.3 o.2.4.4.z.v.M.M.M.v.5...q B.B.B.B.B.B.B.B.B.B.B.B.B.B.B.B.B.",
"B.B.B.B.B.B.B.B.B.B.B.B.B.B.B.B.B.B.3 { 4.4.7.l.v.M.v.6.} e B.B.B.B.B.B.B.B.B.B.B.B.B.B.B.B.B.B.",
"B.B.B.B.B.B.B.B.B.B.B.B.B.B.B.B.B.B.+ u ' ) _ %.<.1.<.] y + B.B.B.B.B.B.B.B.B.B.B.B.B.B.B.B.B.B.",
"B.B.B.B.B.B.B.B.B.B.B.B.B.B.B.B.B.B.@ 9 H J K L @.$.@.K 9 @ B.B.B.B.B.B.B.B.B.B.B.B.B.B.B.B.B.B.",
"B.B.B.B.B.B.B.B.B.B.B.B.B.B.B.B.B.B.B.# > H J K @.$.@.K 0 @ B.B.B.B.B.B.B.B.B.B.B.B.B.B.B.B.B.B.",
"B.B.B.B.B.B.B.B.B.B.B.B.B.B.B.B.B.B.B.B.4 [ *.&.y.t.t.0.S @ B.B.B.B.B.B.B.B.B.B.B.B.B.B.B.B.B.B.",
"B.B.B.B.B.B.B.B.B.B.B.B.B.B.B.B.B.B.B.B.t k.N.m.g.f.d.a.P & B.B.B.B.B.B.B.B.B.B.B.B.B.B.B.B.B.B.",
"B.B.B.B.B.B.B.B.B.B.B.B.B.B.B.B.B.B.B.B.t k.N.c.u.s.a.` l p & B.B.B.B.B.B.B.B.B.B.B.B.B.B.B.B.B.",
"B.B.B.B.B.B.B.B.B.B.B.B.B.B.B.B.B.B.B.A 9.p.h.i.P T R z v d & @ B.B.B.B.B.B.B.B.B.B.B.B.B.B.B.B.",
"B.B.B.B.B.B.B.B.B.B.B.B.B.B.B.B.B.B.@ U f.d.e.U : = d d d p & B.B.B.B.B.B.B.B.B.B.B.B.B.B.B.B.B.",
"B.B.B.B.B.B.B.B.B.B.B.B.B.B.B.B.B.B.$ U d.r.Y : o X & & & & B.B.B.B.B.B.B.B.B.B.B.B.B.B.B.B.B.B.",
"B.B.B.B.B.B.B.B.B.B.B.B.B.B.B.B.B.& = F q.w.G O B.. . o o o B.B.B.B.B.B.B.B.B.B.B.B.B.B.B.B.B.B.",
"B.B.B.B.B.B.B.B.B.B.B.B.B.B.B.B.+ & d v k 8.D @ B.B.B.B.B.B.B.B.B.B.B.B.B.B.B.B.B.B.B.B.B.B.B.B.",
"B.B.B.B.B.B.B.B.B.B.B.B.B.B.B.B.+ & d c a < ; B.B.B.B.B.B.B.B.B.B.B.B.B.B.B.B.B.B.B.B.B.B.B.B.B.",
"B.B.B.B.B.B.B.B.B.B.B.B.B.B.B.B.. $ - i - X   B.B.B.B.B.B.B.B.B.B.B.B.B.B.B.B.B.B.B.B.B.B.B.B.B.",
"B.B.B.B.B.B.B.B.B.B.B.B.B.B.B.B.B.B.B.B.B.B.B.B.B.B.B.B.B.B.B.B.B.B.B.B.B.B.B.B.B.B.B.B.B.B.B.B.",
"B.B.B.B.B.B.B.B.B.B.B.B.B.B.B.B.B.B.B.B.B.B.B.B.B.B.B.B.B.B.B.B.B.B.B.B.B.B.B.B.B.B.B.B.B.B.B.B.",
"B.B.B.B.B.B.B.B.B.B.B.B.B.B.B.B.B.B.B.B.B.B.B.B.B.B.B.B.B.B.B.B.B.B.B.B.B.B.B.B.B.B.B.B.B.B.B.B.",
"B.B.B.B.B.B.B.B.B.B.B.B.B.B.B.B.B.B.B.B.B.B.B.B.B.B.B.B.B.B.B.B.B.B.B.B.B.B.B.B.B.B.B.B.B.B.B.B.",
"B.B.B.B.B.B.B.B.B.B.B.B.B.B.B.B.B.B.B.B.B.B.B.B.B.B.B.B.B.B.B.B.B.B.B.B.B.B.B.B.B.B.B.B.B.B.B.B.",
"B.B.B.B.B.B.B.B.B.B.B.B.B.B.B.B.B.B.B.B.B.B.B.B.B.B.B.B.B.B.B.B.B.B.B.B.B.B.B.B.B.B.B.B.B.B.B.B.",
"B.B.B.B.B.B.B.B.B.B.B.B.B.B.B.B.B.B.B.B.B.B.B.B.B.B.B.B.B.B.B.B.B.B.B.B.B.B.B.B.B.B.B.B.B.B.B.B.",
"B.B.B.B.B.B.B.B.B.B.B.B.B.B.B.B.B.B.B.B.B.B.B.B.B.B.B.B.B.B.B.B.B.B.B.B.B.B.B.B.B.B.B.B.B.B.B.B.",
"B.B.B.B.B.B.B.B.B.B.B.B.B.B.B.B.B.B.B.B.B.B.B.B.B.B.B.B.B.B.B.B.B.B.B.B.B.B.B.B.B.B.B.B.B.B.B.B.",
"B.B.B.B.B.B.B.B.B.B.B.B.B.B.B.B.B.B.B.B.B.B.B.B.B.B.B.B.B.B.B.B.B.B.B.B.B.B.B.B.B.B.B.B.B.B.B.B.",
"B.B.B.B.B.B.B.B.B.B.B.B.B.B.B.B.B.B.B.B.B.B.B.B.B.B.B.B.B.B.B.B.B.B.B.B.B.B.B.B.B.B.B.B.B.B.B.B.",
"B.B.B.B.B.B.B.B.B.B.B.B.B.B.B.B.B.B.B.B.B.B.B.B.B.B.B.B.B.B.B.B.B.B.B.B.B.B.B.B.B.B.B.B.B.B.B.B.",
"B.B.B.B.B.B.B.B.B.B.B.B.B.B.B.B.B.B.B.B.B.B.B.B.B.B.B.B.B.B.B.B.B.B.B.B.B.B.B.B.B.B.B.B.B.B.B.B."
};
