/* XPM */
static char *result[] = {
/* columns rows colors chars-per-pixel */
"48 48 144 2 ",
"   c #0A000C",
".  c #07030C",
"X  c #070215",
"o  c #090411",
"O  c #070319",
"+  c #0D051A",
"@  c #10071A",
"#  c #160C1D",
"$  c #1B0D1D",
"%  c #290E11",
"&  c #271015",
"*  c #25111F",
"=  c #30171F",
"-  c #170E20",
";  c #0E152F",
":  c #1D1122",
">  c #2F1620",
",  c #2A1B27",
"<  c #2C1F29",
"1  c #301620",
"2  c #341922",
"3  c #3A1C23",
"4  c #391F28",
"5  c #0D252F",
"6  c #0F2532",
"7  c #072B3D",
"8  c #102833",
"9  c #2E2028",
"0  c #3E2026",
"q  c #34212B",
"w  c #3C242D",
"e  c #2C2739",
"r  c #393738",
"t  c #3B3A3A",
"y  c #471C15",
"u  c #441F23",
"i  c #462023",
"p  c #4D2525",
"a  c #4A2F2F",
"s  c #522625",
"d  c #542B2B",
"f  c #5E2C28",
"g  c #4C312F",
"h  c #432B32",
"j  c #4F373E",
"k  c #4A3635",
"l  c #543233",
"z  c #5D3332",
"x  c #5F3B3C",
"c  c #62322D",
"v  c #633431",
"b  c #673936",
"n  c #693B36",
"m  c #643E3D",
"M  c #683D3A",
"N  c #6E423F",
"B  c #63473E",
"V  c #70433F",
"C  c #0B2D49",
"Z  c #013054",
"A  c #0F3257",
"S  c #07355F",
"D  c #073660",
"F  c #063863",
"G  c #114B4C",
"H  c #165A4C",
"J  c #27554F",
"K  c #1F754E",
"L  c #01456E",
"P  c #0F4F7F",
"I  c #225A7C",
"U  c #376E70",
"Y  c #6E4441",
"T  c #644A40",
"R  c #6C4F44",
"E  c #704643",
"W  c #734844",
"Q  c #6D5144",
"!  c #745647",
"~  c #796259",
"^  c #73765F",
"/  c #747C5D",
"(  c #787F61",
")  c #805F4C",
"_  c #82614F",
"`  c #856552",
"'  c #81675C",
"]  c #977156",
"[  c #987257",
"{  c #997258",
"}  c #A67D5D",
"|  c #B87D5F",
" . c #907669",
".. c #957969",
"X. c #8F7E75",
"o. c #2D8B4A",
"O. c #2E914A",
"+. c #349C49",
"@. c #72806E",
"#. c #7C8D62",
"$. c #779C7C",
"%. c #8F9677",
"&. c #B68B68",
"*. c #B88B65",
"=. c #B79275",
"-. c #BB9576",
";. c #B8967C",
":. c #8FA871",
">. c #90AA71",
",. c #97B577",
"<. c #C8976B",
"1. c #CE9C6E",
"2. c #D4A071",
"3. c #D7A97F",
"4. c #DEAB7D",
"5. c #D8A472",
"6. c #075D96",
"7. c #105F95",
"8. c #0C6680",
"9. c #006BAE",
"0. c #0070B3",
"q. c #0077BE",
"w. c #179092",
"e. c #169B96",
"r. c #2C998F",
"t. c #1C83B7",
"y. c #008ACF",
"u. c #0083CB",
"i. c #0094DC",
"p. c #2C98C0",
"a. c #29A1D3",
"s. c #C9A382",
"d. c #D8AA81",
"f. c #D2B997",
"g. c #E8B788",
"h. c #E4BC96",
"j. c #F3C599",
"k. c #F7CA9F",
"l. c #F8CA9F",
"z. c #FFD09D",
"x. c #CFC3AA",
"c. c #F9CDA1",
"v. c #FFD2A0",
"b. c None",
/* pixels */
"b.b.b.b.b.b.b.b.b.b.b.b.b.b.b.b.b.b.b.b.b.b.b.b.b.b.b.b.b.b.b.b.b.b.b.b.b.b.b.b.b.b.b.b.b.b.b.b.",
"b.b.b.b.b.b.b.b.b.b.b.b.b.b.b.b.b.b.b.b.b.b.b.b.b.b.b.b.b.b.b.b.b.b.b.b.b.b.b.b.b.b.b.b.b.b.b.b.",
"b.b.b.b.b.b.b.b.b.b.b.b.b.b.b.b.b.b.b.b.b.b.b.b.b.b.b.b.b.b.b.b.b.b.b.b.b.b.b.b.b.b.b.b.b.b.b.b.",
"b.b.b.b.b.b.b.b.b.b.b.b.b.b.b.b.b.b.b.b.b.b.b.b.b.b.b.b.b.b.b.b.b.b.b.b.b.b.b.b.b.b.b.b.b.b.b.b.",
"b.b.b.b.b.b.b.b.b.b.b.b.b.b.b.b.b.b.b.b.b.b.b.b.b.b.b.b.b.b.b.b.b.b.b.b.b.b.b.b.b.b.b.b.b.b.b.b.",
"b.b.b.b.b.b.b.b.b.b.b.b.b.b.b.b.b.b.b.b.b.b.b.b.b.b.b.b.b.b.b.b.b.b.b.b.b.b.b.b.b.b.b.b.b.b.b.b.",
"b.b.b.b.b.b.b.b.b.b.b.b.b.b.b.b.b.b.b.b.b.b.b.b.b.b.b.b.b.b.b.b.b.b.b.b.b.b.b.b.b.b.b.b.b.b.b.b.",
"b.b.b.b.b.b.b.b.b.b.b.b.b.b.b.b.b.b.b.b.+ + O O O O O O O b.b.b.b.b.b.b.b.b.b.b.b.b.b.b.b.b.b.b.",
"b.b.b.b.b.b.b.b.b.b.b.b.b.b.b.b.b.b.b.# $ $ $ : : : : : : $ b.b.b.b.b.b.b.b.b.b.b.b.b.b.b.b.b.b.",
"b.b.b.b.b.b.b.b.b.b.b.b.b.b.b.b.b.b.+ = p s l m x m x x z i $ b.b.b.b.b.b.b.b.b.b.b.b.b.b.b.b.b.",
"b.b.b.b.b.b.b.b.b.b.b.b.b.b.b.b.b.# 4 l n n N W W W W W N v 3 * b.b.b.b.b.b.b.b.b.b.b.b.b.b.b.b.",
"b.b.b.b.b.b.b.b.b.b.b.b.b.b.b.b.$ , m W E E Y E Y E E E E Y v 2 + b.b.b.b.b.b.b.b.b.b.b.b.b.b.b.",
"b.b.b.b.b.b.b.b.b.b.b.b.b.b.b.+ q m Y E E E E E E E E E E E Y w + b.b.b.b.b.b.b.b.b.b.b.b.b.b.b.",
"b.b.b.b.b.b.b.b.b.b.b.b.b.b.b.+ h E E E E E E E E W W E W E E l > $ b.b.b.b.b.b.b.b.b.b.b.b.b.b.",
"b.b.b.b.b.b.b.b.b.b.b.b.b.b.b.+ w E E Y N E E E N M x x M N E n s $ O b.b.b.b.b.b.b.b.b.b.b.b.b.",
"b.b.b.b.b.b.b.b.b.b.b.b.b.b.b.+ w E E M v V E V v 4 : : 4 v E n s $ O b.b.b.b.b.b.b.b.b.b.b.b.b.",
"b.b.b.b.b.b.b.b.b.b.b.b.b.b.b.@ w b b c c N V z 3 a B ! g = w d s $ + b.b.b.b.b.b.b.b.b.b.b.b.b.",
"b.b.b.b.b.b.b.b.b.b.b.b.b.b.b.+ 2 f f s d M v i q ` 4.4._ < + = i $ b.b.b.b.b.b.b.b.b.b.b.b.b.b.",
"b.b.b.b.b.b.b.b.b.b.b.b.b.b.b.+ 2 f f 3 * d 3 q ] 3.j.j.3.[ < + $ b.b.b.b.b.b.b.b.b.b.b.b.b.b.b.",
"b.b.b.b.b.b.b.b.b.b.b.b.b.b.b.+ w z 0 l B 3 a Q ! =.l.c.-.B : O b.b.b.b.b.b.b.b.b.b.b.b.b.b.b.b.",
"b.b.b.b.b.b.b.b.b.b.b.b.b.b.b.@ h x $ ! *.k ` &.9 ~ c.c.' O + b.b.b.b.b.b.b.b.b.b.b.b.b.b.b.b.b.",
"b.b.b.b.b.b.b.b.b.b.b.b.b.b.b.+ h x : Q 1.*.d.s.9 ~ c.v.' + + b.b.b.b.b.b.b.b.b.b.b.b.b.b.b.b.b.",
"b.b.b.b.b.b.b.b.b.b.b.b.b.b.b.b., h Q } 2.5.g.h...;.c.c.-.B : O b.b.b.b.b.b.b.b.b.b.b.b.b.b.b.b.",
"b.b.b.b.b.b.b.b.b.b.b.b.b.b.b.b.b.< [ <.2.2.g.j.c.c.k.j.3.[ 9 b.b.b.b.b.b.b.b.b.b.b.b.b.b.b.b.b.",
"b.b.b.b.b.b.b.b.b.b.b.b.b.b.b.b.b.b.< ) 2.2.5.d.j.c.j.4._ < b.b.b.b.b.b.b.b.b.b.b.b.b.b.b.b.b.b.",
"b.b.b.b.b.b.b.b.b.b.b.b.b.b.b.b.b.b.O t ^ ( / #.:.,.>.@.r o b.b.b.b.b.b.b.b.b.b.b.b.b.b.b.b.b.b.",
"b.b.b.b.b.b.b.b.b.b.b.b.b.b.b.b.b.b.@ 6 G G H K O.+.o.H 6 + b.b.b.b.b.b.b.b.b.b.b.b.b.b.b.b.b.b.",
"b.b.b.b.b.b.b.b.b.b.b.b.b.b.b.b.b.b.@ 6 G G H K O.+.o.H 6 @ b.b.b.b.b.b.b.b.b.b.b.b.b.b.b.b.b.b.",
"b.b.b.b.b.b.b.b.b.b.b.b.b.b.b.b.b.b.@ 5 J ( %.$.r.e.w.8.C + b.b.b.b.b.b.b.b.b.b.b.b.b.b.b.b.b.b.",
"b.b.b.b.b.b.b.b.b.b.b.b.b.b.b.b.b.b.+ 7 U f.c.x.a.i.y.0.S @ b.b.b.b.b.b.b.b.b.b.b.b.b.b.b.b.b.b.",
"b.b.b.b.b.b.b.b.b.b.b.b.b.b.b.b.b.b.@ L p.x.l.x.a.u.0.9.D @ b.b.b.b.b.b.b.b.b.b.b.b.b.b.b.b.b.b.",
"b.b.b.b.b.b.b.b.b.b.b.b.b.b.b.b.b.b.o Z I  .*.X.t.q.9.9.F + b.b.b.b.b.b.b.b.b.b.b.b.b.b.b.b.b.b.",
"b.b.b.b.b.b.b.b.b.b.b.b.b.b.b.b.b.b.b.O $ i s h P 6.7.7.A + b.b.b.b.b.b.b.b.b.b.b.b.b.b.b.b.b.b.",
"b.b.b.b.b.b.b.b.b.b.b.b.b.b.b.b.b.b.b.o @ # $ # ; e j j 9 + b.b.b.b.b.b.b.b.b.b.b.b.b.b.b.b.b.b.",
"b.b.b.b.b.b.b.b.b.b.b.b.b.b.b.b.b.b.b.. . o X X   % y y & o b.b.b.b.b.b.b.b.b.b.b.b.b.b.b.b.b.b.",
"b.b.b.b.b.b.b.b.b.b.b.b.b.b.b.b.b.b.b.b.b.b.b.b.b.b.b.b.b.b.b.b.b.b.b.b.b.b.b.b.b.b.b.b.b.b.b.b.",
"b.b.b.b.b.b.b.b.b.b.b.b.b.b.b.b.b.b.b.b.b.b.b.b.b.b.b.b.b.b.b.b.b.b.b.b.b.b.b.b.b.b.b.b.b.b.b.b.",
"b.b.b.b.b.b.b.b.b.b.b.b.b.b.b.b.b.b.b.b.b.b.b.b.b.b.b.b.b.b.b.b.b.b.b.b.b.b.b.b.b.b.b.b.b.b.b.b.",
"b.b.b.b.b.b.b.b.b.b.b.b.b.b.b.b.b.b.b.b.b.b.b.b.b.b.b.b.b.b.b.b.b.b.b.b.b.b.b.b.b.b.b.b.b.b.b.b.",
"b.b.b.b.b.b.b.b.b.b.b.b.b.b.b.b.b.b.b.b.b.b.b.b.b.b.b.b.b.b.b.b.b.b.b.b.b.b.b.b.b.b.b.b.b.b.b.b.",
"b.b.b.b.b.b.b.b.b.b.b.b.b.b.b.b.b.b.b.b.b.b.b.b.b.b.b.b.b.b.b.b.b.b.b.b.b.b.b.b.b.b.b.b.b.b.b.b.",
"b.b.b.b.b.b.b.b.b.b.b.b.b.b.b.b.b.b.b.b.b.b.b.b.b.b.b.b.b.b.b.b.b.b.b.b.b.b.b.b.b.b.b.b.b.b.b.b.",
"b.b.b.b.b.b.b.b.b.b.b.b.b.b.b.b.b.b.b.b.b.b.b.b.b.b.b.b.b.b.b.b.b.b.b.b.b.b.b.b.b.b.b.b.b.b.b.b.",
"b.b.b.b.b.b.b.b.b.b.b.b.b.b.b.b.b.b.b.b.b.b.b.b.b.b.b.b.b.b.b.b.b.b.b.b.b.b.b.b.b.b.b.b.b.b.b.b.",
"b.b.b.b.b.b.b.b.b.b.b.b.b.b.b.b.b.b.b.b.b.b.b.b.b.b.b.b.b.b.b.b.b.b.b.b.b.b.b.b.b.b.b.b.b.b.b.b.",
"b.b.b.b.b.b.b.b.b.b.b.b.b.b.b.b.b.b.b.b.b.b.b.b.b.b.b.b.b.b.b.b.b.b.b.b.b.b.b.b.b.b.b.b.b.b.b.b.",
"b.b.b.b.b.b.b.b.b.b.b.b.b.b.b.b.b.b.b.b.b.b.b.b.b.b.b.b.b.b.b.b.b.b.b.b.b.b.b.b.b.b.b.b.b.b.b.b.",
"b.b.b.b.b.b.b.b.b.b.b.b.b.b.b.b.b.b.b.b.b.b.b.b.b.b.b.b.b.b.b.b.b.b.b.b.b.b.b.b.b.b.b.b.b.b.b.b."
};
