/* XPM */
static char *result[] = {
/* columns rows colors chars-per-pixel */
"48 48 151 2 ",
"   c #06010D",
".  c #0B010C",
"X  c #020014",
"o  c #0A0615",
"O  c #0C061A",
"+  c #140A1D",
"@  c #1A0C1C",
"#  c #150510",
"$  c #270F1A",
"%  c #24111C",
"&  c #2F161F",
"*  c #32131A",
"=  c #0A0F20",
"-  c #0D1122",
";  c #1C1121",
":  c #0B1732",
">  c #0A1E3A",
",  c #061E3C",
"<  c #161D35",
"1  c #2C1622",
"2  c #271A26",
"3  c #2A1B27",
"4  c #211D2A",
"5  c #311720",
"6  c #341921",
"7  c #3A1D24",
"8  c #1D2B34",
"9  c #0F363D",
"0  c #2F2029",
"q  c #3E2227",
"w  c #352229",
"e  c #3C252D",
"r  c #352831",
"t  c #332632",
"y  c #431F1C",
"u  c #451F22",
"i  c #442024",
"p  c #4D2525",
"a  c #4B2629",
"s  c #502626",
"d  c #532827",
"f  c #5D2B27",
"g  c #542929",
"h  c #5E2D29",
"j  c #442A31",
"k  c #502D31",
"l  c #453233",
"z  c #41313C",
"x  c #5C3433",
"c  c #5E3839",
"v  c #553438",
"b  c #61312D",
"n  c #633633",
"m  c #6A3D39",
"M  c #673D3A",
"N  c #5A473F",
"B  c #65473D",
"V  c #6C423E",
"C  c #65483F",
"Z  c #0E3E66",
"A  c #0E5748",
"S  c #0C5A5B",
"D  c #204D4B",
"F  c #20534F",
"G  c #39465E",
"H  c #335A52",
"J  c #1D754A",
"K  c #386753",
"L  c #054574",
"P  c #2F5977",
"I  c #2A5D7E",
"U  c #1C7660",
"Y  c #376567",
"T  c #387662",
"R  c #584944",
"E  c #6D4341",
"W  c #654A40",
"Q  c #6A4D41",
"!  c #714643",
"~  c #744945",
"^  c #6D5245",
"/  c #725C55",
"(  c #407E56",
")  c #5F7559",
"_  c #776356",
"`  c #726963",
"'  c #6F7567",
"]  c #6B7D6D",
"[  c #805F4C",
"{  c #80604D",
"}  c #8F6756",
"|  c #967156",
" . c #987257",
".. c #9B7558",
"X. c #A97D5C",
"o. c #8F7364",
"O. c #957765",
"+. c #2B8748",
"@. c #2B9045",
"#. c #1C8361",
"$. c #289263",
"%. c #4E9558",
"&. c #509A58",
"*. c #56A459",
"=. c #89927B",
"-. c #B28662",
";. c #B28A6A",
":. c #B3936B",
">. c #B99C71",
",. c #B29677",
"<. c #C7976B",
"1. c #C29976",
"2. c #D29F70",
"3. c #D3A070",
"4. c #D9A271",
"5. c #E3A873",
"6. c #E1AB7C",
"7. c #035992",
"8. c #0C5E95",
"9. c #006299",
"0. c #316A8B",
"q. c #2A7497",
"w. c #026CA3",
"e. c #0672A2",
"r. c #006AB2",
"t. c #0173B6",
"y. c #0078BB",
"u. c #1375B1",
"i. c #0081B2",
"p. c #1182BE",
"a. c #0891BD",
"s. c #578396",
"d. c #6394AB",
"f. c #0082CB",
"g. c #008CCE",
"h. c #008DD1",
"j. c #9A9188",
"k. c #DAAD83",
"l. c #D3AC8B",
"z. c #D0BB8B",
"x. c #D0BA9F",
"c. c #D2B794",
"v. c #E6B789",
"b. c #EDBB8C",
"n. c #E1B893",
"m. c #D8C594",
"M. c #F6C79D",
"N. c #F7CBA0",
"B. c #FACDA1",
"V. c #FFD5A6",
"C. c #3E8948",
/* pixels */
"C.C.C.C.C.C.C.C.C.C.C.C.C.C.C.C.C.C.C.C.C.C.C.C.C.C.C.C.C.C.C.C.C.C.C.C.C.C.C.C.C.C.C.C.C.C.C.C.",
"C.C.C.C.C.C.C.C.C.C.C.C.C.C.C.C.C.C.C.C.C.C.C.C.C.C.C.C.C.C.C.C.C.C.C.C.C.C.C.C.C.C.C.C.C.C.C.C.",
"C.C.C.C.C.C.C.C.C.C.C.C.C.C.C.C.C.C.C.C.C.C.C.C.C.C.C.C.C.C.C.C.C.C.C.C.C.C.C.C.C.C.C.C.C.C.C.C.",
"C.C.C.C.C.C.C.C.C.C.C.C.C.C.C.C.C.C.C.C.C.C.C.C.C.C.C.C.C.C.C.C.C.C.C.C.C.C.C.C.C.C.C.C.C.C.C.C.",
"C.C.C.C.C.C.C.C.C.C.C.C.C.C.C.C.C.C.C.C.C.C.C.C.C.C.C.C.C.C.C.C.C.C.C.C.C.C.C.C.C.C.C.C.C.C.C.C.",
"C.C.C.C.C.C.C.C.C.C.C.C.C.C.C.C.C.C.C.C.C.C.C.C.C.C.C.C.C.C.C.C.C.C.C.C.C.C.C.C.C.C.C.C.C.C.C.C.",
"C.C.C.C.C.C.C.C.C.C.C.C.C.C.C.C.C.C.C.C.+ O O O O O O O O O C.C.C.C.C.C.C.C.C.C.C.C.C.C.C.C.C.C.",
"C.C.C.C.C.C.C.C.C.C.C.C.C.C.C.C.C.C.C.% 5 5 w j e e e e q & + C.C.C.C.C.C.C.C.C.C.C.C.C.C.C.C.C.",
"C.C.C.C.C.C.C.C.C.C.C.C.C.C.C.C.C.C.; 7 b n m ! ~ ~ ! ! m g % + C.C.C.C.C.C.C.C.C.C.C.C.C.C.C.C.",
"C.C.C.C.C.C.C.C.C.C.C.C.C.C.C.C.C.; v E m m ! ! ! ! ! ~ ! m g 5 O C.C.C.C.C.C.C.C.C.C.C.C.C.C.C.",
"C.C.C.C.C.C.C.C.C.C.C.C.C.C.C.C.3 j E ~ ! ! ! E ! E ~ E ! ! V 7 O C.C.C.C.C.C.C.C.C.C.C.C.C.C.C.",
"C.C.C.C.C.C.C.C.C.C.C.C.C.C.C.+ j ! ! ! ! ! ! ! ! ! ! ! ! ! ! j @ C.C.C.C.C.C.C.C.C.C.C.C.C.C.C.",
"C.C.C.C.C.C.C.C.C.C.C.C.C.C.C.O e ~ ! ! E ! ! ! ! E ! ! ! E E n u @ C.C.C.C.C.C.C.C.C.C.C.C.C.C.",
"C.C.C.C.C.C.C.C.C.C.C.C.C.C.C.O e ! ~ m m ! ! ! m k e w g V ! V g @ O C.C.C.C.C.C.C.C.C.C.C.C.C.",
"C.C.C.C.C.C.C.C.C.C.C.C.C.C.C.O e m E n b V ! M g q 0 0 q s c n p @ O C.C.C.C.C.C.C.C.C.C.C.C.C.",
"C.C.C.C.C.C.C.C.C.C.C.C.C.C.C.O 6 n b h b E m g % C -.-.C @ ; i p @ O C.C.C.C.C.C.C.C.C.C.C.C.C.",
"C.C.C.C.C.C.C.C.C.C.C.C.C.C.C.O 6 f f u 6 x a 7 Q ;.b.b.;.N ; @ 5 @ C.C.C.C.C.C.C.C.C.C.C.C.C.C.",
"C.C.C.C.C.C.C.C.C.C.C.C.C.C.C.O 6 b g q w p 7 l ..k.N.N.k.| 3 O O C.C.C.C.C.C.C.C.C.C.C.C.C.C.C.",
"C.C.C.C.C.C.C.C.C.C.C.C.C.C.C.+ j c 1 W | w B ..l o.B.B.O.3 + O C.C.C.C.C.C.C.C.C.C.C.C.C.C.C.C.",
"C.C.C.C.C.C.C.C.C.C.C.C.C.C.C.O j c @ ^ <.{ ;.1.2 / B.B._ X O C.C.C.C.C.C.C.C.C.C.C.C.C.C.C.C.C.",
"C.C.C.C.C.C.C.C.C.C.C.C.C.C.C.O t v e _ 2.2.b.l.R o.B.B.O.3 + O C.C.C.C.C.C.C.C.C.C.C.C.C.C.C.C.",
"C.C.C.C.C.C.C.C.C.C.C.C.C.C.C.C.+ e | <.2.2.v.M.l.n.B.B.k.| 3 X C.C.C.C.C.C.C.C.C.C.C.C.C.C.C.C.",
"C.C.C.C.C.C.C.C.C.C.C.C.C.C.C.C.C.2 Q -.4.4.5.b.B.B.M.b.;.Q 3 C.C.C.C.C.C.C.C.C.C.C.C.C.C.C.C.C.",
"C.C.C.C.C.C.C.C.C.C.C.C.C.C.C.C.C.C.= R :.:.:.>.z.m.z.>.R O C.C.C.C.C.C.C.C.C.C.C.C.C.C.C.C.C.C.",
"C.C.C.C.C.C.C.C.C.C.C.C.C.C.C.C.C.- 9 D H H K ( &.*.%.K 8 O C.C.C.C.C.C.C.C.C.C.C.C.C.C.C.C.C.C.",
"C.C.C.C.C.C.C.C.C.C.C.C.C.C.C.C.o ; ' =.] F A J @.+.+.) _ Q 3 C.C.C.C.C.C.C.C.C.C.C.C.C.C.C.C.C.",
"C.C.C.C.C.C.C.C.C.C.C.C.C.C.C.C.X r l.V.c.Y S U $.#.T :.5.-.3 X C.C.C.C.C.C.C.C.C.C.C.C.C.C.C.C.",
"C.C.C.C.C.C.C.C.C.C.C.C.C.C.C.C.X r l.V.x.q.9.e.a.i.q.,.5.-.w X C.C.C.C.C.C.C.C.C.C.C.C.C.C.C.C.",
"C.C.C.C.C.C.C.C.C.C.C.C.C.C.C.C.X 2 } j.d.u.r.t.f.f.p.s.` C 3 C.C.C.C.C.C.C.C.C.C.C.C.C.C.C.C.C.",
"C.C.C.C.C.C.C.C.C.C.C.C.C.C.C.C.O @ p G 8.7.7.7.7.t.h.y.L , C.C.C.C.C.C.C.C.C.C.C.C.C.C.C.C.C.C.",
"C.C.C.C.C.C.C.C.C.C.C.C.C.C.C.C.O @ p x z < : : : L y.h.g.w.> C.C.C.C.C.C.C.C.C.C.C.C.C.C.C.C.C.",
"C.C.C.C.C.C.C.C.C.C.C.C.C.C.C.C.O + 5 6 * # . . . > Z I 0.P r % C.C.C.C.C.C.C.C.C.C.C.C.C.C.C.C.",
"C.C.C.C.C.C.C.C.C.C.C.C.C.C.C.C.C.O O O O C.C.C.C.  @ u f f f 7 O C.C.C.C.C.C.C.C.C.C.C.C.C.C.C.",
"C.C.C.C.C.C.C.C.C.C.C.C.C.C.C.C.C.C.C.C.C.C.C.C.C.C.. @ 7 f f & + C.C.C.C.C.C.C.C.C.C.C.C.C.C.C.",
"C.C.C.C.C.C.C.C.C.C.C.C.C.C.C.C.C.C.C.C.C.C.C.C.C.C.C.X % y y % o C.C.C.C.C.C.C.C.C.C.C.C.C.C.C.",
"C.C.C.C.C.C.C.C.C.C.C.C.C.C.C.C.C.C.C.C.C.C.C.C.C.C.C.C.C.C.C.C.C.C.C.C.C.C.C.C.C.C.C.C.C.C.C.C.",
"C.C.C.C.C.C.C.C.C.C.C.C.C.C.C.C.C.C.C.C.C.C.C.C.C.C.C.C.C.C.C.C.C.C.C.C.C.C.C.C.C.C.C.C.C.C.C.C.",
"C.C.C.C.C.C.C.C.C.C.C.C.C.C.C.C.C.C.C.C.C.C.C.C.C.C.C.C.C.C.C.C.C.C.C.C.C.C.C.C.C.C.C.C.C.C.C.C.",
"C.C.C.C.C.C.C.C.C.C.C.C.C.C.C.C.C.C.C.C.C.C.C.C.C.C.C.C.C.C.C.C.C.C.C.C.C.C.C.C.C.C.C.C.C.C.C.C.",
"C.C.C.C.C.C.C.C.C.C.C.C.C.C.C.C.C.C.C.C.C.C.C.C.C.C.C.C.C.C.C.C.C.C.C.C.C.C.C.C.C.C.C.C.C.C.C.C.",
"C.C.C.C.C.C.C.C.C.C.C.C.C.C.C.C.C.C.C.C.C.C.C.C.C.C.C.C.C.C.C.C.C.C.C.C.C.C.C.C.C.C.C.C.C.C.C.C.",
"C.C.C.C.C.C.C.C.C.C.C.C.C.C.C.C.C.C.C.C.C.C.C.C.C.C.C.C.C.C.C.C.C.C.C.C.C.C.C.C.C.C.C.C.C.C.C.C.",
"C.C.C.C.C.C.C.C.C.C.C.C.C.C.C.C.C.C.C.C.C.C.C.C.C.C.C.C.C.C.C.C.C.C.C.C.C.C.C.C.C.C.C.C.C.C.C.C.",
"C.C.C.C.C.C.C.C.C.C.C.C.C.C.C.C.C.C.C.C.C.C.C.C.C.C.C.C.C.C.C.C.C.C.C.C.C.C.C.C.C.C.C.C.C.C.C.C.",
"C.C.C.C.C.C.C.C.C.C.C.C.C.C.C.C.C.C.C.C.C.C.C.C.C.C.C.C.C.C.C.C.C.C.C.C.C.C.C.C.C.C.C.C.C.C.C.C.",
"C.C.C.C.C.C.C.C.C.C.C.C.C.C.C.C.C.C.C.C.C.C.C.C.C.C.C.C.C.C.C.C.C.C.C.C.C.C.C.C.C.C.C.C.C.C.C.C.",
"C.C.C.C.C.C.C.C.C.C.C.C.C.C.C.C.C.C.C.C.C.C.C.C.C.C.C.C.C.C.C.C.C.C.C.C.C.C.C.C.C.C.C.C.C.C.C.C.",
"C.C.C.C.C.C.C.C.C.C.C.C.C.C.C.C.C.C.C.C.C.C.C.C.C.C.C.C.C.C.C.C.C.C.C.C.C.C.C.C.C.C.C.C.C.C.C.C."
};
