/* XPM */
static char *result[] = {
/* columns rows colors chars-per-pixel */
"48 48 136 2 ",
"   c #03010B",
".  c #09030D",
"X  c #060214",
"o  c #0D0516",
"O  c #070319",
"+  c #0C051A",
"@  c #140815",
"#  c #160C1D",
"$  c #1B0D1D",
"%  c #25111F",
"&  c #31161F",
"*  c #391B1B",
"=  c #1D1122",
"-  c #2F1620",
";  c #2A1B27",
":  c #2C1F28",
">  c #301620",
",  c #341922",
"<  c #3A1C23",
"1  c #391F28",
"2  c #0F2832",
"3  c #2E2028",
"4  c #3E2026",
"5  c #34212B",
"6  c #3C242D",
"7  c #21343A",
"8  c #363437",
"9  c #3B3A3A",
"0  c #47201C",
"q  c #441F23",
"w  c #462023",
"e  c #4D2525",
"r  c #4A2F2F",
"t  c #512626",
"y  c #542B2C",
"u  c #5E2C28",
"i  c #4C312F",
"p  c #5B302F",
"a  c #432A31",
"s  c #4A3635",
"d  c #543233",
"f  c #5D3332",
"g  c #5F3B3C",
"h  c #682D25",
"j  c #632F29",
"k  c #62322D",
"l  c #633431",
"z  c #673936",
"x  c #693B36",
"c  c #643E3D",
"v  c #683D3A",
"b  c #63473E",
"n  c #6E423F",
"m  c #70433F",
"M  c #062141",
"N  c #153355",
"B  c #343345",
"V  c #063661",
"C  c #0E3C64",
"Z  c #104B4B",
"A  c #15554B",
"S  c #165B4D",
"D  c #3A455C",
"F  c #1D6E4D",
"G  c #21764E",
"H  c #1A4166",
"J  c #284869",
"K  c gray28",
"L  c #404052",
"P  c #434E5D",
"I  c #6E4441",
"U  c #644A40",
"Y  c #6C4F44",
"T  c #704643",
"R  c #734844",
"E  c #6D5144",
"W  c #745647",
"Q  c #676B59",
"!  c #796259",
"~  c #73765F",
"^  c #747C5D",
"/  c #405A63",
"(  c #497A78",
")  c #787F61",
"_  c #805F4C",
"`  c #82614F",
"'  c #856552",
"]  c #81675C",
"[  c #977156",
"{  c #9A7357",
"}  c #997258",
"|  c #A67D5D",
" . c #957969",
".. c #29854B",
"X. c #2A894B",
"o. c #2F914A",
"O. c #32984A",
"+. c #7C8D62",
"@. c #868C76",
"#. c #B78A64",
"$. c #B88B65",
"%. c #B68B68",
"&. c #B79275",
"*. c #BB9576",
"=. c #B8967C",
"-. c #90AA71",
";. c #97B577",
":. c #C8976B",
">. c #CE9C6E",
",. c #D4A071",
"<. c #D8A472",
"1. c #D7A97F",
"2. c #DEAB7D",
"3. c #076384",
"4. c #107481",
"5. c #0C7D94",
"6. c #0D68A1",
"7. c #006AAD",
"8. c #006FB3",
"9. c #0070B3",
"0. c #0074B9",
"q. c #416984",
"w. c #179291",
"e. c #159298",
"r. c #7D9AA5",
"t. c #018ACE",
"y. c #0094D9",
"u. c #C9A382",
"i. c #D8AA81",
"p. c #E8B788",
"a. c #E4BC96",
"s. c #F3C599",
"d. c #F7CA9F",
"f. c #F8CA9F",
"g. c #FACDA1",
"h. c #3E8948",
/* pixels */
"h.h.h.h.h.h.h.h.h.h.h.h.h.h.h.h.h.h.h.h.h.h.h.h.h.h.h.h.h.h.h.h.h.h.h.h.h.h.h.h.h.h.h.h.h.h.h.h.",
"h.h.h.h.h.h.h.h.h.h.h.h.h.h.h.h.h.h.h.h.h.h.h.h.h.h.h.h.h.h.h.h.h.h.h.h.h.h.h.h.h.h.h.h.h.h.h.h.",
"h.h.h.h.h.h.h.h.h.h.h.h.h.h.h.h.h.h.h.h.h.h.h.h.h.h.h.h.h.h.h.h.h.h.h.h.h.h.h.h.h.h.h.h.h.h.h.h.",
"h.h.h.h.h.h.h.h.h.h.h.h.h.h.h.h.h.h.h.h.h.h.h.h.h.h.h.h.h.h.h.h.h.h.h.h.h.h.h.h.h.h.h.h.h.h.h.h.",
"h.h.h.h.h.h.h.h.h.h.h.h.h.h.h.h.h.h.h.h.O O O O O O O O O h.h.h.h.h.h.h.h.h.h.h.h.h.h.h.h.h.h.h.",
"h.h.h.h.h.h.h.h.h.h.h.h.h.h.h.h.h.h.h.# $ $ = = = = = = $ $ h.h.h.h.h.h.h.h.h.h.h.h.h.h.h.h.h.h.",
"h.h.h.h.h.h.h.h.h.h.h.h.h.h.h.h.h.h.+ & t t p g c g g g f w $ h.h.h.h.h.h.h.h.h.h.h.h.h.h.h.h.h.",
"h.h.h.h.h.h.h.h.h.h.h.h.h.h.h.h.h.# 6 d x x n T R R R R n l < % h.h.h.h.h.h.h.h.h.h.h.h.h.h.h.h.",
"h.h.h.h.h.h.h.h.h.h.h.h.h.h.h.h.# ; g R I I R I I T I I R I l , + h.h.h.h.h.h.h.h.h.h.h.h.h.h.h.",
"h.h.h.h.h.h.h.h.h.h.h.h.h.h.h.# 5 U I R R R I T T T R I I R I 6 + h.h.h.h.h.h.h.h.h.h.h.h.h.h.h.",
"h.h.h.h.h.h.h.h.h.h.h.h.h.h.h.+ 6 R R R R I T T R R R R R R R d > $ h.h.h.h.h.h.h.h.h.h.h.h.h.h.",
"h.h.h.h.h.h.h.h.h.h.h.h.h.h.h.+ 6 R I I I I T R n c g g c I I x t $ O h.h.h.h.h.h.h.h.h.h.h.h.h.",
"h.h.h.h.h.h.h.h.h.h.h.h.h.h.h.+ 6 R R v k n R n k 4 = = 4 l I v t $ + h.h.h.h.h.h.h.h.h.h.h.h.h.",
"h.h.h.h.h.h.h.h.h.h.h.h.h.h.h.+ 1 v z k k n m f < i E E i - 6 y t $ O h.h.h.h.h.h.h.h.h.h.h.h.h.",
"h.h.h.h.h.h.h.h.h.h.h.h.h.h.h.+ , u u t y v l w 5 ` 1.<.' ; # - w $ h.h.h.h.h.h.h.h.h.h.h.h.h.h.",
"h.h.h.h.h.h.h.h.h.h.h.h.h.h.h.+ , u u < % y < 5 [ 1.s.s.i.[ ; + $ h.h.h.h.h.h.h.h.h.h.h.h.h.h.h.",
"h.h.h.h.h.h.h.h.h.h.h.h.h.h.h.+ 1 f < d U < r E W &.g.g.=.U = O h.h.h.h.h.h.h.h.h.h.h.h.h.h.h.h.",
"h.h.h.h.h.h.h.h.h.h.h.h.h.h.h.+ a g = W $.s ' %.3 ! g.g.! + + h.h.h.h.h.h.h.h.h.h.h.h.h.h.h.h.h.",
"h.h.h.h.h.h.h.h.h.h.h.h.h.h.h.+ a c = E >.#.i.u.5 ! g.g.] + + h.h.h.h.h.h.h.h.h.h.h.h.h.h.h.h.h.",
"h.h.h.h.h.h.h.h.h.h.h.h.h.h.h.h.; a Y | ,.<.p.a. .=.g.g.*.U = O h.h.h.h.h.h.h.h.h.h.h.h.h.h.h.h.",
"h.h.h.h.h.h.h.h.h.h.h.h.h.h.h.h.h.: } :.,.,.p.s.g.g.g.s.i.[ 3 h.h.h.h.h.h.h.h.h.h.h.h.h.h.h.h.h.",
"h.h.h.h.h.h.h.h.h.h.h.h.h.h.h.h.h.h.: _ ,.,.,.2.s.g.s.2.` 3 h.h.h.h.h.h.h.h.h.h.h.h.h.h.h.h.h.h.",
"h.h.h.h.h.h.h.h.h.h.h.h.h.h.h.h.h.h.O 9 ) ~ ~ +.-.;.-.) 8 X h.h.h.h.h.h.h.h.h.h.h.h.h.h.h.h.h.h.",
"h.h.h.h.h.h.h.h.h.h.h.h.h.h.h.h.h.h.+ 2 Z Z S G o.o...A 7 3 h.h.h.h.h.h.h.h.h.h.h.h.h.h.h.h.h.h.",
"h.h.h.h.h.h.h.h.h.h.h.h.h.h.h.h.h.h.+ 2 Z Z S G o.X.F A Q { 3 h.h.h.h.h.h.h.h.h.h.h.h.h.h.h.h.h.",
"h.h.h.h.h.h.h.h.h.h.h.h.h.h.h.h.h.h.@ K @.@.( 4.w.e.5.3./ E : h.h.h.h.h.h.h.h.h.h.h.h.h.h.h.h.h.",
"h.h.h.h.h.h.h.h.h.h.h.h.h.h.h.h.h.h.+ ] g.g.r.9.t.y.t.6.N $ h.h.h.h.h.h.h.h.h.h.h.h.h.h.h.h.h.h.",
"h.h.h.h.h.h.h.h.h.h.h.h.h.h.h.h.h.h.o ] g.g.r.7.9.0.6.L y q $ h.h.h.h.h.h.h.h.h.h.h.h.h.h.h.h.h.",
"h.h.h.h.h.h.h.h.h.h.h.h.h.h.h.h.h.h.+ P r.r.q.V V H D p h t $ + h.h.h.h.h.h.h.h.h.h.h.h.h.h.h.h.",
"h.h.h.h.h.h.h.h.h.h.h.h.h.h.h.h.h.h.+ V 7.7.V + o & e t e w $ h.h.h.h.h.h.h.h.h.h.h.h.h.h.h.h.h.",
"h.h.h.h.h.h.h.h.h.h.h.h.h.h.h.h.h.h.+ V 7.7.V o . @ $ $ $ $ h.h.h.h.h.h.h.h.h.h.h.h.h.h.h.h.h.h.",
"h.h.h.h.h.h.h.h.h.h.h.h.h.h.h.h.h.$ , B J C M . h.  X X X X h.h.h.h.h.h.h.h.h.h.h.h.h.h.h.h.h.h.",
"h.h.h.h.h.h.h.h.h.h.h.h.h.h.h.h.O $ t j t $ X h.h.h.h.h.h.h.h.h.h.h.h.h.h.h.h.h.h.h.h.h.h.h.h.h.",
"h.h.h.h.h.h.h.h.h.h.h.h.h.h.h.h.O $ t j t $ X h.h.h.h.h.h.h.h.h.h.h.h.h.h.h.h.h.h.h.h.h.h.h.h.h.",
"h.h.h.h.h.h.h.h.h.h.h.h.h.h.h.h.  @ * 0 * @   h.h.h.h.h.h.h.h.h.h.h.h.h.h.h.h.h.h.h.h.h.h.h.h.h.",
"h.h.h.h.h.h.h.h.h.h.h.h.h.h.h.h.h.h.h.h.h.h.h.h.h.h.h.h.h.h.h.h.h.h.h.h.h.h.h.h.h.h.h.h.h.h.h.h.",
"h.h.h.h.h.h.h.h.h.h.h.h.h.h.h.h.h.h.h.h.h.h.h.h.h.h.h.h.h.h.h.h.h.h.h.h.h.h.h.h.h.h.h.h.h.h.h.h.",
"h.h.h.h.h.h.h.h.h.h.h.h.h.h.h.h.h.h.h.h.h.h.h.h.h.h.h.h.h.h.h.h.h.h.h.h.h.h.h.h.h.h.h.h.h.h.h.h.",
"h.h.h.h.h.h.h.h.h.h.h.h.h.h.h.h.h.h.h.h.h.h.h.h.h.h.h.h.h.h.h.h.h.h.h.h.h.h.h.h.h.h.h.h.h.h.h.h.",
"h.h.h.h.h.h.h.h.h.h.h.h.h.h.h.h.h.h.h.h.h.h.h.h.h.h.h.h.h.h.h.h.h.h.h.h.h.h.h.h.h.h.h.h.h.h.h.h.",
"h.h.h.h.h.h.h.h.h.h.h.h.h.h.h.h.h.h.h.h.h.h.h.h.h.h.h.h.h.h.h.h.h.h.h.h.h.h.h.h.h.h.h.h.h.h.h.h.",
"h.h.h.h.h.h.h.h.h.h.h.h.h.h.h.h.h.h.h.h.h.h.h.h.h.h.h.h.h.h.h.h.h.h.h.h.h.h.h.h.h.h.h.h.h.h.h.h.",
"h.h.h.h.h.h.h.h.h.h.h.h.h.h.h.h.h.h.h.h.h.h.h.h.h.h.h.h.h.h.h.h.h.h.h.h.h.h.h.h.h.h.h.h.h.h.h.h.",
"h.h.h.h.h.h.h.h.h.h.h.h.h.h.h.h.h.h.h.h.h.h.h.h.h.h.h.h.h.h.h.h.h.h.h.h.h.h.h.h.h.h.h.h.h.h.h.h.",
"h.h.h.h.h.h.h.h.h.h.h.h.h.h.h.h.h.h.h.h.h.h.h.h.h.h.h.h.h.h.h.h.h.h.h.h.h.h.h.h.h.h.h.h.h.h.h.h.",
"h.h.h.h.h.h.h.h.h.h.h.h.h.h.h.h.h.h.h.h.h.h.h.h.h.h.h.h.h.h.h.h.h.h.h.h.h.h.h.h.h.h.h.h.h.h.h.h.",
"h.h.h.h.h.h.h.h.h.h.h.h.h.h.h.h.h.h.h.h.h.h.h.h.h.h.h.h.h.h.h.h.h.h.h.h.h.h.h.h.h.h.h.h.h.h.h.h.",
"h.h.h.h.h.h.h.h.h.h.h.h.h.h.h.h.h.h.h.h.h.h.h.h.h.h.h.h.h.h.h.h.h.h.h.h.h.h.h.h.h.h.h.h.h.h.h.h."
};
