/* XPM */
static char *result[] = {
/* columns rows colors chars-per-pixel */
"48 48 133 2 ",
"   c #070007",
".  c #03010A",
"X  c #0A000B",
"o  c #050216",
"O  c #0A0415",
"+  c #070319",
"@  c #0C051A",
"#  c #140815",
"$  c #160C1D",
"%  c #1B0D1D",
"&  c #290C0F",
"*  c #25111F",
"=  c #31171F",
"-  c #391B1B",
";  c #080E24",
":  c #1D1122",
">  c #0B1733",
",  c #2F1620",
"<  c #2B1C27",
"1  c #2C1F28",
"2  c #301620",
"3  c #341922",
"4  c #3A1C23",
"5  c #391F28",
"6  c #0F2832",
"7  c #2E2029",
"8  c #3E2026",
"9  c #33212A",
"0  c #3C242D",
"q  c #2C2B3D",
"w  c #3B3A3A",
"e  c #471B15",
"r  c #431F1B",
"t  c #44201C",
"y  c #462023",
"u  c #4D2525",
"i  c #4A2F2F",
"p  c #512626",
"a  c #542B2B",
"s  c #5D2D29",
"d  c #4C312F",
"f  c #432A31",
"g  c #4A3635",
"h  c #4E3D3D",
"j  c #543233",
"k  c #5D3332",
"l  c #5F3B3C",
"z  c #622B25",
"x  c #62322D",
"c  c #633431",
"v  c #673936",
"b  c #693B36",
"n  c #643E3D",
"m  c #683D3A",
"M  c #62473F",
"N  c #6E423F",
"B  c #70433F",
"V  c #073158",
"C  c #343B4E",
"Z  c #513B41",
"A  c #104B4B",
"S  c #16574A",
"D  c #165B4D",
"F  c #21764E",
"G  c #064D79",
"H  c #3F626D",
"J  c gray28",
"K  c #6E4441",
"L  c #654A40",
"P  c #6C4F44",
"I  c #704643",
"U  c #734844",
"Y  c #6D5144",
"T  c #745647",
"R  c #6D604F",
"E  c #7C645A",
"W  c #73765F",
"Q  c #747C5D",
"!  c #777E61",
"~  c #797961",
"^  c #805F4C",
"/  c #81614E",
"(  c #856552",
")  c #81675C",
"_  c #977156",
"`  c #997258",
"'  c #A67D5D",
"]  c #957969",
"[  c #2B8A49",
"{  c #2F914A",
"}  c #349C49",
"|  c #7C8D62",
" . c #868C76",
".. c #B38762",
"X. c #B78A64",
"o. c #B88B65",
"O. c #B68B68",
"+. c #B79275",
"@. c #BB9576",
"#. c #B8967C",
"$. c #8FA771",
"%. c #90AA71",
"&. c #97B577",
"*. c #C8976B",
"=. c #CE9C6E",
"-. c #D4A071",
";. c #D8A472",
":. c #D6A97F",
">. c #DEAB7D",
",. c #025892",
"<. c #0C7994",
"1. c #266C93",
"2. c #0772AC",
"3. c #1D77A4",
"4. c #407591",
"5. c #108796",
"6. c #179494",
"7. c #1A9A93",
"8. c #498786",
"9. c #7DB2BF",
"0. c #0084C9",
"q. c #0092D8",
"w. c #0099DE",
"e. c #0593D3",
"r. c #C9A382",
"t. c #D8AA81",
"y. c #E8B788",
"u. c #E4BC96",
"i. c #F3C599",
"p. c #F7CA9F",
"a. c #F8CA9F",
"s. c #FACDA1",
"d. c #3E8948",
/* pixels */
"d.d.d.d.d.d.d.d.d.d.d.d.d.d.d.d.d.d.d.d.d.d.d.d.d.d.d.d.d.d.d.d.d.d.d.d.d.d.d.d.d.d.d.d.d.d.d.d.",
"d.d.d.d.d.d.d.d.d.d.d.d.d.d.d.d.d.d.d.d.d.d.d.d.d.d.d.d.d.d.d.d.d.d.d.d.d.d.d.d.d.d.d.d.d.d.d.d.",
"d.d.d.d.d.d.d.d.d.d.d.d.d.d.d.d.d.d.d.d.d.d.d.d.d.d.d.d.d.d.d.d.d.d.d.d.d.d.d.d.d.d.d.d.d.d.d.d.",
"d.d.d.d.d.d.d.d.d.d.d.d.d.d.d.d.d.d.d.d.d.d.d.d.d.d.d.d.d.d.d.d.d.d.d.d.d.d.d.d.d.d.d.d.d.d.d.d.",
"d.d.d.d.d.d.d.d.d.d.d.d.d.d.d.d.d.d.d.d.d.d.d.d.d.d.d.d.d.d.d.d.d.d.d.d.d.d.d.d.d.d.d.d.d.d.d.d.",
"d.d.d.d.d.d.d.d.d.d.d.d.d.d.d.d.d.d.d.d.d.d.d.d.d.d.d.d.d.d.d.d.d.d.d.d.d.d.d.d.d.d.d.d.d.d.d.d.",
"d.d.d.d.d.d.d.d.d.d.d.d.d.d.d.d.d.d.d.d.d.d.d.d.d.d.d.d.d.d.d.d.d.d.d.d.d.d.d.d.d.d.d.d.d.d.d.d.",
"d.d.d.d.d.d.d.d.d.d.d.d.d.d.d.d.d.d.d.d.@ @ + + O + + + + d.d.d.d.d.d.d.d.d.d.d.d.d.d.d.d.d.d.d.",
"d.d.d.d.d.d.d.d.d.d.d.d.d.d.d.d.d.d.d.$ % % % : : : : : : % d.d.d.d.d.d.d.d.d.d.d.d.d.d.d.d.d.d.",
"d.d.d.d.d.d.d.d.d.d.d.d.d.d.d.d.d.d.@ = u u k n l l l l k y % d.d.d.d.d.d.d.d.d.d.d.d.d.d.d.d.d.",
"d.d.d.d.d.d.d.d.d.d.d.d.d.d.d.d.d.% 9 j b b N I U U U U N c 4 * d.d.d.d.d.d.d.d.d.d.d.d.d.d.d.d.",
"d.d.d.d.d.d.d.d.d.d.d.d.d.d.d.d.% < n I I I K I I I I I I K c 3 @ d.d.d.d.d.d.d.d.d.d.d.d.d.d.d.",
"d.d.d.d.d.d.d.d.d.d.d.d.d.d.d.@ 9 n K I I I I I I I I I I I K 0 + d.d.d.d.d.d.d.d.d.d.d.d.d.d.d.",
"d.d.d.d.d.d.d.d.d.d.d.d.d.d.d.@ f I I I I I I I I I U I U I I j = % d.d.d.d.d.d.d.d.d.d.d.d.d.d.",
"d.d.d.d.d.d.d.d.d.d.d.d.d.d.d.@ 0 I U K N I I I B m l l m N I b p % + d.d.d.d.d.d.d.d.d.d.d.d.d.",
"d.d.d.d.d.d.d.d.d.d.d.d.d.d.d.@ 0 I I m c B I B c 5 : : 5 c I b p % @ d.d.d.d.d.d.d.d.d.d.d.d.d.",
"d.d.d.d.d.d.d.d.d.d.d.d.d.d.d.@ 0 v v x x m I c 3 i P P i = 8 a p % + d.d.d.d.d.d.d.d.d.d.d.d.d.",
"d.d.d.d.d.d.d.d.d.d.d.d.d.d.d.$ 3 s s p a m c y 9 ( >.>./ < $ , y % d.d.d.d.d.d.d.d.d.d.d.d.d.d.",
"d.d.d.d.d.d.d.d.d.d.d.d.d.d.d.@ 3 s z 4 , a 4 1 _ :.i.i.t._ < @ % d.d.d.d.d.d.d.d.d.d.d.d.d.d.d.",
"d.d.d.d.d.d.d.d.d.d.d.d.d.d.d.@ 0 k 8 j M 4 i P T +.s.s.@.L : + d.d.d.d.d.d.d.d.d.d.d.d.d.d.d.d.",
"d.d.d.d.d.d.d.d.d.d.d.d.d.d.d.@ 0 l : T o.g ( O.< E s.s.E @ @ d.d.d.d.d.d.d.d.d.d.d.d.d.d.d.d.d.",
"d.d.d.d.d.d.d.d.d.d.d.d.d.d.d.@ f l : Y =.X.t.r.7 E s.s.) @ @ d.d.d.d.d.d.d.d.d.d.d.d.d.d.d.d.d.",
"d.d.d.d.d.d.d.d.d.d.d.d.d.d.d.d.< f Y ' -.;.y.u.] #.s.s.@.L : + d.d.d.d.d.d.d.d.d.d.d.d.d.d.d.d.",
"d.d.d.d.d.d.d.d.d.d.d.d.d.d.d.d.d.1 ` *.-.-.y.i.s.s.p.i.:._ 7 d.d.d.d.d.d.d.d.d.d.d.d.d.d.d.d.d.",
"d.d.d.d.d.d.d.d.d.d.d.d.d.d.d.d.d.d.1 ^ -.-.-.>.i.s.u.t.( 7 d.d.d.d.d.d.d.d.d.d.d.d.d.d.d.d.d.d.",
"d.d.d.d.d.d.d.d.d.d.d.d.d.d.d.d.d.d.o w W Q Q  .$.&.$.| T L 1 d.d.d.d.d.d.d.d.d.d.d.d.d.d.d.d.d.",
"d.d.d.d.d.d.d.d.d.d.d.d.d.d.d.d.d.d.# 6 A A D F { } [ S ~ ..7 o d.d.d.d.d.d.d.d.d.d.d.d.d.d.d.d.",
"d.d.d.d.d.d.d.d.d.d.d.d.d.d.d.d.d.d.O 6 A A D F { } [ S ~ ..7 o d.d.d.d.d.d.d.d.d.d.d.d.d.d.d.d.",
"d.d.d.d.d.d.d.d.d.d.d.d.d.d.d.d.d.d.@ J  . .8.5.6.7.6.<.H L < d.d.d.d.d.d.d.d.d.d.d.d.d.d.d.d.d.",
"d.d.d.d.d.d.d.d.d.d.d.d.d.d.d.d.d.d.@ ) s.s.9.w.w.w.w.w.G + d.d.d.d.d.d.d.d.d.d.d.d.d.d.d.d.d.d.",
"d.d.d.d.d.d.d.d.d.d.d.d.d.d.d.d.d.d.@ E s.s.9.w.w.w.w.w.G @ d.d.d.d.d.d.d.d.d.d.d.d.d.d.d.d.d.d.",
"d.d.d.d.d.d.d.d.d.d.d.d.d.d.d.d.d.d.O h ) ) 4.0.0.q.e.1.C 2 $ d.d.d.d.d.d.d.d.d.d.d.d.d.d.d.d.d.",
"d.d.d.d.d.d.d.d.d.d.d.d.d.d.d.d.d.d.d.O O O V ,.,.2.3.Z z p % o d.d.d.d.d.d.d.d.d.d.d.d.d.d.d.d.",
"d.d.d.d.d.d.d.d.d.d.d.d.d.d.d.d.d.d.d.d.d.d.; > > q h k z p % o d.d.d.d.d.d.d.d.d.d.d.d.d.d.d.d.",
"d.d.d.d.d.d.d.d.d.d.d.d.d.d.d.d.d.d.d.d.d.d.  X X & e r t - # . d.d.d.d.d.d.d.d.d.d.d.d.d.d.d.d.",
"d.d.d.d.d.d.d.d.d.d.d.d.d.d.d.d.d.d.d.d.d.d.d.d.d.d.d.d.d.d.d.d.d.d.d.d.d.d.d.d.d.d.d.d.d.d.d.d.",
"d.d.d.d.d.d.d.d.d.d.d.d.d.d.d.d.d.d.d.d.d.d.d.d.d.d.d.d.d.d.d.d.d.d.d.d.d.d.d.d.d.d.d.d.d.d.d.d.",
"d.d.d.d.d.d.d.d.d.d.d.d.d.d.d.d.d.d.d.d.d.d.d.d.d.d.d.d.d.d.d.d.d.d.d.d.d.d.d.d.d.d.d.d.d.d.d.d.",
"d.d.d.d.d.d.d.d.d.d.d.d.d.d.d.d.d.d.d.d.d.d.d.d.d.d.d.d.d.d.d.d.d.d.d.d.d.d.d.d.d.d.d.d.d.d.d.d.",
"d.d.d.d.d.d.d.d.d.d.d.d.d.d.d.d.d.d.d.d.d.d.d.d.d.d.d.d.d.d.d.d.d.d.d.d.d.d.d.d.d.d.d.d.d.d.d.d.",
"d.d.d.d.d.d.d.d.d.d.d.d.d.d.d.d.d.d.d.d.d.d.d.d.d.d.d.d.d.d.d.d.d.d.d.d.d.d.d.d.d.d.d.d.d.d.d.d.",
"d.d.d.d.d.d.d.d.d.d.d.d.d.d.d.d.d.d.d.d.d.d.d.d.d.d.d.d.d.d.d.d.d.d.d.d.d.d.d.d.d.d.d.d.d.d.d.d.",
"d.d.d.d.d.d.d.d.d.d.d.d.d.d.d.d.d.d.d.d.d.d.d.d.d.d.d.d.d.d.d.d.d.d.d.d.d.d.d.d.d.d.d.d.d.d.d.d.",
"d.d.d.d.d.d.d.d.d.d.d.d.d.d.d.d.d.d.d.d.d.d.d.d.d.d.d.d.d.d.d.d.d.d.d.d.d.d.d.d.d.d.d.d.d.d.d.d.",
"d.d.d.d.d.d.d.d.d.d.d.d.d.d.d.d.d.d.d.d.d.d.d.d.d.d.d.d.d.d.d.d.d.d.d.d.d.d.d.d.d.d.d.d.d.d.d.d.",
"d.d.d.d.d.d.d.d.d.d.d.d.d.d.d.d.d.d.d.d.d.d.d.d.d.d.d.d.d.d.d.d.d.d.d.d.d.d.d.d.d.d.d.d.d.d.d.d.",
"d.d.d.d.d.d.d.d.d.d.d.d.d.d.d.d.d.d.d.d.d.d.d.d.d.d.d.d.d.d.d.d.d.d.d.d.d.d.d.d.d.d.d.d.d.d.d.d.",
"d.d.d.d.d.d.d.d.d.d.d.d.d.d.d.d.d.d.d.d.d.d.d.d.d.d.d.d.d.d.d.d.d.d.d.d.d.d.d.d.d.d.d.d.d.d.d.d."
};
