/* XPM */
static char *result[] = {
/* columns rows colors chars-per-pixel */
"48 48 176 2 ",
"   c #170F13",
".  c #1F141B",
"X  c #21151B",
"o  c #26181D",
"O  c #28191E",
"+  c #291A22",
"@  c #301F29",
"#  c #33202A",
"$  c #3A242E",
"%  c #3B2427",
"&  c #3C2631",
"*  c #3F2933",
"=  c #44262C",
"-  c #45282E",
";  c #4C2B2E",
":  c #4B2729",
">  c #542B2A",
",  c #5C2E2B",
"<  c #532827",
"1  c #442B33",
"2  c #4C2E33",
"3  c #512F33",
"4  c #4F3033",
"5  c #45323D",
"6  c #4E333A",
"7  c #543334",
"8  c #593635",
"9  c #5D3837",
"0  c #57373B",
"q  c #64322D",
"w  c #6B362F",
"e  c #623736",
"r  c #643A36",
"t  c #6B3B35",
"y  c #623C3B",
"u  c #6C3D38",
"i  c #713B35",
"p  c #723E39",
"a  c #67413F",
"s  c #744336",
"d  c #754239",
"f  c #7A4539",
"g  c #7E4B3C",
"h  c #77473B",
"j  c #392F43",
"k  c #3D3041",
"l  c #373955",
"z  c #3E3A52",
"x  c #4C3D4C",
"c  c #4C3745",
"v  c #593B42",
"b  c #374467",
"n  c #384467",
"m  c #3E4F74",
"M  c #3F5076",
"N  c #5D434A",
"B  c #49445B",
"V  c #574958",
"C  c #594A57",
"Z  c #614141",
"A  c #694545",
"S  c #65464D",
"D  c #744E49",
"F  c #79534D",
"G  c #7A5854",
"H  c #624C56",
"J  c #414563",
"K  c #4A4962",
"L  c #48506F",
"P  c #5E5363",
"I  c #585469",
"U  c #495270",
"Y  c #495575",
"T  c #545D7A",
"R  c #615462",
"E  c #6D5F6C",
"W  c #665965",
"Q  c #5C647F",
"!  c #6D616E",
"~  c #636377",
"^  c #726672",
"/  c #796B76",
"(  c #7A6D78",
")  c #766974",
"_  c #7C6162",
"`  c #80473A",
"'  c #854B3A",
"]  c #8A4E3B",
"[  c #8D513C",
"{  c #93533A",
"}  c #915037",
"|  c #A35C3F",
" . c #875141",
".. c #8E5745",
"X. c #9A5B43",
"o. c #935D4E",
"O. c #905640",
"+. c #825952",
"@. c #A25D41",
"#. c #8D6359",
"$. c #966355",
"%. c #95675C",
"&. c #9A6A5E",
"*. c #A46247",
"=. c #AF6647",
"-. c #AB6649",
";. c #AA674C",
":. c #B06647",
">. c #B26B4D",
",. c #B96E4E",
"<. c #B26847",
"1. c #BC704F",
"2. c #AC6F56",
"3. c #B46F52",
"4. c #B96F50",
"5. c #B57155",
"6. c #BB7151",
"7. c #B67459",
"8. c #BC775B",
"9. c #BC785D",
"0. c #8E6961",
"q. c #9A6D62",
"w. c #9D7E7A",
"e. c #A3796F",
"r. c #AB7A69",
"t. c #BA7C65",
"y. c #AA7F73",
"u. c #C37A5B",
"i. c #BE826C",
"p. c #AB857C",
"a. c #BE8570",
"s. c #C38167",
"d. c #C6876F",
"f. c #C88468",
"g. c #C9896F",
"h. c #C58972",
"j. c #CA8B73",
"k. c #C38C78",
"l. c #4A5D81",
"z. c #5C6783",
"x. c #5E6984",
"c. c #54678A",
"v. c #55698C",
"b. c #586C8E",
"n. c #536080",
"m. c #5D6F90",
"M. c #56698B",
"N. c #616B86",
"B. c #6B6D82",
"V. c #787889",
"C. c #6E7994",
"Z. c #667A9A",
"A. c #697996",
"S. c #857A84",
"D. c #75849E",
"F. c #7E8AA2",
"G. c #778BA9",
"H. c #798CAA",
"J. c #6E81A0",
"K. c #8A818B",
"L. c #928892",
"P. c #9B8C90",
"I. c #9C939B",
"U. c #9A8A8F",
"Y. c #B18D85",
"T. c #B49189",
"R. c #808BA3",
"E. c #8C97AD",
"W. c #8793AA",
"Q. c #8599B5",
"!. c #8B9AB2",
"~. c #8B9FBA",
"^. c #839AB8",
"/. c #919DB3",
"(. c #A098A1",
"). c None",
/* pixels */
").).).& & & & & & & & & * $ & & & & & & & & & & & & & & & & & & & & = & & 1 & & & & & & & ).).).",
").).).1 1 1 1 1 1 1 1 * * 1 1 1 1 1 1 1 1 1 1 1 1 1 1 1 1 1 1 1 1 1 * * * * 1 1 1 1 1 1 1 ).).).",
").).4 7 8 8 8 7 6 5 k k k k 5 6 7 8 8 8 8 8 8 8 8 8 8 7 8 8 8 7 6 5 j j k k 5 6 7 8 8 8 7 ; ).).",
"& 1 7 r s s f d Z x z l l z x Z d s s s s s s s h s s s s s s h v x x l l z x Z d s s s a 8 1 & ",
"& 1 8 h ] { { [ D V J b n n V D [ [ { [ [ { { [ [ [ [ [ [ [ { [ D V J b n J V D [ { { [ s 8 1 & ",
"& 1 9 g { *.*.X.+.P U m L L R +.X.*.| X.*.X.*.{ | @.@.@.@.@.@.X.+.R L m m U R +.X.*.*.{ ' 9 1 & ",
"& 1 9  .*.<.<.;.#.E T l.Y T ! %.;.=.=.-.=.;.-.=.-.-.-.-.-.=.-.;.#.E T l.l.T ! #.;.:.<.-. .9 1 & ",
"& 1 a ..>.1.1.5.q.( x.v.b.x.( q.5.,.,.,.,.,.,.5.6.4.4.4.4.1.1.2.q./ N.v.c.N.( q.2.1.1.>...a 1 & ",
"& 1 A o.7.u.u.t.e.S.C.Z.Z.C.S.e.8.u.u.8.9.9.8.9.9.9.9.9.9.u.8.9.e.S.C.Z.Z.C.S.e.t.u.u.7.o.A 1 $ ",
"$ 1 A $.t.f.f.i.p.L.R.H.H.R.L.p.i.s.s.s.s.s.s.s.s.s.s.s.s.s.s.i.p.L.R.H.H.R.L.p.i.f.f.t.$.A 1 $ ",
"$ 6 A %.i.j.d.h.Y.I.E.Q.Q.E.I.Y.a.g.h.h.h.g.h.h.h.h.h.h.g.d.g.h.Y.I.E.Q.~.E.I.Y.h.g.j.i.%.A 5 $ ",
"$ 1 A &.a.j.j.k.T.(./.~.~./.(.T.k.h.h.h.h.h.h.h.h.h.h.h.k.h.h.k.T.(./.~.~./.(.T.k.j.j.i.&.A 1 $ ",
"$ 1 A &.a.j.j.k.T.(./.~.~./.I.T.k.h.g.h.k.h.h.h.h.h.h.h.h.h.g.k.T.I./.~.~./.(.T.k.j.j.a.&.A 1 $ ",
"$ 5 A &.i.j.d.h.Y.I.E.Q.Q.E.I.Y.k.d.d.h.d.f.h.g.h.h.h.d.d.d.d.k.Y.I.E.Q.Q.E.I.Y.h.h.j.i.%.A 5 $ ",
"$ 1 A $.t.f.f.i.p.L.R.G.H.F.L.p.i.s.s.s.s.i.s.i.s.s.s.s.s.s.s.i.p.L.F.G.G.F.L.p.i.f.f.t.$.A 1 $ ",
"$ 1 Z o.7.u.u.t.e.S.C.Z.Z.C.S.e.8.8.8.8.8.8.8.8.8.8.8.8.8.8.8.7.e.S.C.Z.Z.C.S.e.9.u.u.7.o.A 1 & ",
"& 1 a ..>.6.6.5.q.( N.b.b.N.( q.>.1.1.6.6.6.6.6.6.6.6.5.6.1.1.5.q.( x.b.b.N.( q.3.6.6.3...a 1 & ",
"$ 1 y  .*.:.=.;.0.) x.v.v.x./ q.5.1.1.,.,.,.>.,.,.,.,.,.5.1.1.5.q./ x.v.v.x.) #.;.-.=.*. .9 1 & ",
"& 1 9 g X.| @.X.+.) z.v.v.N./ q.5.1.1.,.4.,.1.<.,.,.,.,.6.1.1.5.q./ x.c.v.x.^ #.X.| @.X.g 8 1 & ",
"& 1 8 h [ { { O.+.! z.c.c.z.) q.2.,.,.>.>.5.6.5.5.5.5.>.,.>.>.>.q.) z.c.v.z.! G O.{ { ] h 8 1 & ",
"& 1 7 h [ { { { G W T l.l.n.E #.;.=.>.>.2.r.r.p.p.e.r.2.;.=.=.;.%.! T l.l.T W F { { { } s 8 1 & ",
"& 1 8 h [ { { { F P Y L L L R +.X.| { *.&.w.U.I.P.L.p.&.*.| | X.+.R U Y m U R F { { { [ h 8 1 & ",
"& 1 7 s ] } }  .D V n n b n V D [ } } O.%.K.W./.!.W.K.0.O.} { [ D V J n n J V D  .{ { ] s 8 1 & ",
"& 1 7 r d f f d v x z l l x x v h s s h _ K.!.^.H.F.V.G h s s s Z x z l l z x v d h s d r 7 1 & ",
"& 1 1 7 8 8 8 7 6 c j j j j c 6 8 7 7 9 W V.E.^.H.J.~ C 8 8 8 8 6 5 c j j j c 6 7 7 8 7 7 2 1 1 ",
"& & 1 1 1 1 1 2 2 2 & 1 1 1 1 1 1 = = 5 H C.W.Q.J.x.I B 1 - * - 1 1 & 1 1 1 1 1 4 4 1 1 & & & & ",
"1 & & & & 1 4 7 3 3 3 3 3 2 1 - 1 $ = 2 V B.C.Z.m.T J x 1 = % & 1 1 3 3 2 3 3 8 7 4 1 & $ $ # # ",
").).& & 1 4 r d p i e t e e 7 2 1 = ; 3 v ~ A.m.T L B 5 ; : = 1 2 7 e r e e u p d r 7 & $ + o X ",
").).).& 1 8 d ' ` f p p p p e 3 - - < , N R z.n.Y J x 7 , > - 1 2 e u p p p f ' ' d 8 * # . ).).",
").).).* 1 7 s '  .f p p p p e 6 - = < , y H P I B x c 9 q , ; 1 3 e p p p p ` ' ' d 8 * @ . ).).",
").).).& 1 7 u h ` f p f p p e 3 - - < , e a S S v 0 8 e w 8 2 - 3 e p p p f f f f a 7 * # . ).).",
").).).& & 4 e d f f p p p p e 3 1 - > , w u p t e , q t p e 4 1 3 t p f p p p f p r 4 = # X ).).",
").).).& 1 2 e u p p p ` ` p u 3 1 ; > q w t i i w w w i u e 3 1 7 u d f p p p p p t 3 1 @ X ).).",
").).).* 1 2 e p p p p p ` ' p 8 1 2 9 w i i p i i w i i p 9 2 1 7 d ` ' f p p p p e 2 1 @ X ).).",
").).).& 1 2 9 d f p p ` ] ] d 8 1 7 9 d p p p p p p p p p e 4 1 8 d ] ] ` d p f p e 3 - # X ).).",
").).).& 1 7 u f ` ` ' ] [ [ f 8 1 4 u h ' ` ' ` ' ` ` ' f u 7 2 8 h [ { ] ` ` f f u 7 1 # X ).).",
").).).& 1 7 s ' } ] [ [ { } h 8 4 7 s ' [ [ ] ] } ] ] ] ] d 7 1 7 f [ { [ [ [ [ ' d 7 1 # . ).).",
").).).& 1 8 s [ [ [ [ [ [ ] d 7 1 8 s ' [ [ [ [ ] ] ] [ ' s 7 2 7 d [ [ [ [ [ } ] d 7 = @ . ).).",
").).).# $ ; r s s h h h h d r 4 1 4 a s s h s h f f f f d r 4 1 4 r d h s h f h d a 4 $ +   ).).",
").).).).o % ; 8 8 9 9 8 8 8 7 1 - 2 ; 8 9 8 8 9 9 8 8 8 7 7 4 * 1 7 8 8 9 8 8 9 8 ; % o   ).).).",
").).).).).o $ = 1 1 1 1 1 * = & * * - * - * 1 1 - * 1 1 - = * * * * 1 1 1 * 1 1 * % o ).).).).).",
").).).).).  o # # # # # @ # # # # $ @ # # # # # @ # # # @ # # $ # # # # # # @ # @ o   ).).).).).",
").).).).).).  . X X . . . X X X X X . o . . . . . . . . . . X X X X X . . . o . .   ).).).).).).",
").).).).).).).).).).).).).).).).).).).).).).).).).).).).).).).).).).).).).).).).).).).).).).).).",
").).).).).).).).).).).).).).).).).).).).).).).).).).).).).).).).).).).).).).).).).).).).).).).).",
").).).).).).).).).).).).).).).).).).).).).).).).).).).).).).).).).).).).).).).).).).).).).).).).",
").).).).).).).).).).).).).).).).).).).).).).).).).).).).).).).).).).).).).).).).).).).).).).).).",
").).).).).).).).).).).).).).).).).).).).).).).).).).).).).).).).).).).).).).).).).).).).).).).)."
};
