/* XPM */
static char *_01bf9410a884d97fd0076d1945980276UVgAck5IryYtwfI[] = {
/* columns rows colors chars-per-pixel */
"48 96 8 1 ",
"  c None",
". c #193C3E",
"X c #3F2832",
"o c #6D483B",
"O c #265C42",
"+ c #3D6C43",
"@ c #9C6754",
"# c #3E8948",
/* pixels */
"################################################",
"################################################",
"################################################",
"################################################",
"################################################",
"################O####OO#####OO##################",
"###############O.O##O.O####O.O#O################",
"############O#OO.OO#O.OO##O..OO.O##O############",
"########O##OOOO.o.OO.o.OOO.oo..o.O#OO##O########",
"#######O.OOO.OO.oo..ooo...oo@ooo.OO.O#O.O#######",
"########O.O.o..oo@@ooo@ooooo@@@oo..o.O.O########",
"#########O.oo@@oo@@@oo@@@ooo@@@@o@@oo.O#########",
"#########O.o@@oXXo@@XXX@@oXXX@@XXo@@o.O#########",
"########OO.ooXX++XXX+++XXX+++XX++XXoo.OO########",
"######OOO.oXX++++++++++++++++++++++XXo.OOO######",
"#####O...o@X+++##+++###+++###++###++X@o...O#####",
"#####O..oo@X++######################X@oo..O#####",
"######OO.o@X++######################X@o.OO######",
"#######OO.oX++######################Xo.OO#######",
"########O.X++#######################+X.O########",
"######OOO.X++#######################+X.OOO######",
"#####O...ooX++######################Xoo...O#####",
"#####OOO..@X++######################X@..OOO#####",
"#######OO.@X++######################X@.OO#######",
"########O.@X++######################X@.O########",
"########O.oX++######################Xo.O########",
"#######OO.X++#######################+X.OO#######",
"######OO.oX++#######################+Xo.OO######",
"#####O..o@X++#######################+X@o..O#####",
"#####OOO.@X++#######################+X@.OOO#####",
"#######O.X++########################++X.O#######",
"######O.ooX++#######################+Xoo.O######",
"#####O...o@X++######################X@o...O#####",
"######OOO.oX++#####################+Xo.OOO######",
"########OO.@X++##################++X@.OO########",
"#########O.o@XX+#+++##++##+++###+XX@o.O#########",
"#########O.o@XoX+XXX++XX++XXX+#+X@X@o.O#########",
"########O.O.o..oXoooXX@oXX@@@X+Xo..o.O.O########",
"#######O.OOO.OO.o...o@o...o@@oXo.OO.O#O.O#######",
"########O##OOOO..OOO.o.OOO.oo..o.O#OO##O########",
"############O#OO.OO#O.OO##O..OO.O##O############",
"###############OOO##O.O####O.O#O################",
"#####################OO#####OO##################",
"################################################",
"################################################",
"################################################",
"################################################",
"################################################",
"################################                ",
"################################                ",
"################################                ",
"################################                ",
"###############++###############                ",
"############+++XX+++############                ",
"##########++...oo...++##########                ",
"########++..OOO..OOO..++########                ",
"#######+...O###OO###O...+#######                ",
"######+.OO.O########O.OO.+######                ",
"#####+X.O#O##########O#O.X+#####                ",
"#####Xo.O##############O.oX#####                ",
"#####X@..O############O..@X#####                ",
"#####X.OO##############OO.X#####                ",
"#####X.O################O.X#####                ",
"####Xoo.OO############OO.ooX####                ",
"####Xoo.OO############OO.ooX++##                ",
"####X@.O################O.@X++##                ",
"####X@.OO##############OO.@X++##                ",
"####X@o..O############O..o@X++##                ",
"####XoX.O#############OO.XoX++##                ",
"####+Xo.O#O####OO####OOO.oX+++##                ",
"####+Xo.OO.O##O..O##O.OO.oX++###                ",
"####+Xoo...O#OO..OOOO...ooX++###                ",
"####+Xo@oo..OO.oo.OO..oo@oX++###                ",
"####+Xo@@oXo..oooo..oXo@@oX++###                ",
"#####+XX@oXooo@oo@oooXo@XX++####                ",
"######++XXXo@@@oo@@@oXXX+++#####                ",
"#######++++X@@oXXo@@X+++++######                ",
"########++++XXX++XXX++++########                ",
"###########++++++++++###########                ",
"############+++##+++############                ",
"################################################",
"################################################",
"################################################",
"######################################OOOO######",
"######OO#############OO#############OOOOOOO#####",
"####OOOOO##########OOOOO###########OOOOOOOO#####",
"###OOOOOO#########OOOOOO##########OOOOOOOO######",
"###OOOOO##########OOOOO###OO######OOOOOOO#######",
"####OO####OO#######OO####OOOOO#####OOOO###OO####",
"##########OOO############OOOOOO#########OOOOO###",
"#####OO####OO#########OO##OOOOO########OOOOOO###",
"#####OO##############OOO####OO#########OOOOO####",
"#####################OO#################OO######",
"################################################",
"################################################",
"################################################"
};
