/* XPM */
static char *_136a389bbaf420aa7c9f452909099e0sSa54xUzb1g2edVp[] = {
/* columns rows colors chars-per-pixel */
"48 96 6 1 ",
"  c None",
". c #193C3E",
"X c #265C42",
"o c #B86F50",
"O c #3E8948",
"+ c #E4A672",
/* pixels */
"OOOOOOOOOOOOOOOOOOOOOOOOOOOOOOOOOOOOOOOOOOOOOOOO",
"OOOOOOOOOOOOOOOOOOOOOOOOOOOOOOOOOOOOOOOOOOOOOOOO",
"OOOOOOOOOOOOOOOOOOOOOOOOOOOOOOOOOOOOOOOOOOOOOOOO",
"OOOOOOOOOOOOOOOOOOOOOOOOOOOOOOOOOOOOOOOOOOOOOOOO",
"OOOOOOOOOOOOOOOOOOOOOOOOOOOOOOOOOOOOOOOOOOOOOOOO",
"OOOOOOOOOOOOOOOOXOOOOXXOOOOOXXOOOOOOOOOOOOOOOOOO",
"OOOOOOOOOOOOOOOX.XOOX.XOOOOX.XOXOOOOOOOOOOOOOOOO",
"OOOOOOOOOOOOXOXX.XXOX.XXOOX..XX.XOOXOOOOOOOOOOOO",
"OOOOOOOOXOOXXXX.o.XX.o.XXX.oo..o.XOXXOOXOOOOOOOO",
"OOOOOOOX.XXX.XX.oo..ooo...oooooo.XX.XOX.XOOOOOOO",
"OOOOOOOOX.X.o..oooooo+ooooo++oo+o..o.X.XOOOOOOOO",
"OOOOOOOOOX.ooooo++oo+++ooo+++++++oooo.XOOOOOOOOO",
"OOOOOOOOOX.oo+++++++++++++++++++++++o.XOOOOOOOOO",
"OOOOOOOOXX.o+++++++++++++++++++++++++.XXOOOOOOOO",
"OOOOOOXXX.oo+++++++++++++++++++++++++o.XXXOOOOOO",
"OOOOOX...oo+++++++++++++++++++++++++++o...XOOOOO",
"OOOOOX..oo+++++++++++++++++++++++++++++o..XOOOOO",
"OOOOOOXX.oo++++++++++++++++++++++++++++.XXOOOOOO",
"OOOOOOOXX.oo++++++++++++++++++++++++++.XXOOOOOOO",
"OOOOOOOOX.oo++++++++++++++++++++++++++.XOOOOOOOO",
"OOOOOOXXX.oo++++++++++++++++++++++++++.XXXOOOOOO",
"OOOOOX...oo+++++++++++++++++++++++++++o...XOOOOO",
"OOOOOXXX..oo++++++++++++++++++++++++++..XXXOOOOO",
"OOOOOOOXX.oo++++++++++++++++++++++++++.XXOOOOOOO",
"OOOOOOOOX.oo++++++++++++++++++++++++++.XOOOOOOOO",
"OOOOOOOOX.oo++++++++++++++++++++++++++.XOOOOOOOO",
"OOOOOOOXX.oo++++++++++++++++++++++++++.XXOOOOOOO",
"OOOOOOXX.oo+++++++++++++++++++++++++++o.XXOOOOOO",
"OOOOOX..oo+++++++++++++++++++++++++++++o..XOOOOO",
"OOOOOXXX.oo++++++++++++++++++++++++++++.XXXOOOOO",
"OOOOOOOX.oo++++++++++++++++++++++++++++.XOOOOOOO",
"OOOOOOX.oo+++++++++++++++++++++++++++++o.XOOOOOO",
"OOOOOX...oo++++++++++++++++++++++++++++...XOOOOO",
"OOOOOOXXX.oo++++++++++++++++++++++++++.XXXOOOOOO",
"OOOOOOOOXX.o+++++++++++++++++++++++++.XXOOOOOOOO",
"OOOOOOOOOX.oo++++++++++++++++++++++++.XOOOOOOOOO",
"OOOOOOOOOX.oooo++++++++++++++++++oo+o.XOOOOOOOOO",
"OOOOOOOOX.X.o..o++ooo++oooo+++++o..o.X.XOOOOOOOO",
"OOOOOOOX.XXX.XX.o...ooo...oo+ooo.XX.XOX.XOOOOOOO",
"OOOOOOOOXOOXXXX..XXX.o.XXX.oo..o.XOXXOOXOOOOOOOO",
"OOOOOOOOOOOOXOXX.XXOX.XXOOX..XX.XOOXOOOOOOOOOOOO",
"OOOOOOOOOOOOOOOXXXOOX.XOOOOX.XOXOOOOOOOOOOOOOOOO",
"OOOOOOOOOOOOOOOOOOOOOXXOOOOOXXOOOOOOOOOOOOOOOOOO",
"OOOOOOOOOOOOOOOOOOOOOOOOOOOOOOOOOOOOOOOOOOOOOOOO",
"OOOOOOOOOOOOOOOOOOOOOOOOOOOOOOOOOOOOOOOOOOOOOOOO",
"OOOOOOOOOOOOOOOOOOOOOOOOOOOOOOOOOOOOOOOOOOOOOOOO",
"OOOOOOOOOOOOOOOOOOOOOOOOOOOOOOOOOOOOOOOOOOOOOOOO",
"OOOOOOOOOOOOOOOOOOOOOOOOOOOOOOOOOOOOOOOOOOOOOOOO",
"++++++++++++++++++++++++++++++++                ",
"++++++++++++++++++++++++++++++++                ",
"++++++++++++++++++++++++++++++++                ",
"++++++++++++++++++++++++++++++++                ",
"++++++++++++++++++++++++++++++++                ",
"+++++++++++ooo++++ooo+++++++++++                ",
"+++++++++ooo..oooo..ooo+++++++++                ",
"++++++++oo..XX.oo.XX..ooo+++++++                ",
"+++++++o...XOXX..XXXX...oo++++++                ",
"+++++++.XX.XOOX..XOOX.XX.oo+++++                ",
"+++++++.XOXOOOOXXOOOOXXX.oo+++++                ",
"+++++++.XOOOOOOOOOOOOOOX.oo+++++                ",
"+++++++..XOOOOOOOOOOOOX..oo+++++                ",
"++++++.XXOOOOOOOOOOOOOOXX.oo++++                ",
"++++++.XOOOOOOOOOOOOOOOOX.oo++++                ",
"++++++o.XXOOOOOOOOOOOOXX.oo+++++                ",
"+++++++.XXOOOOOOOOOOOOXX.oo+++++                ",
"++++++.XOOOOOOOOOOOOOOOOX.oo++++                ",
"++++++.XXOOOOOOOOOOOOOOXX.oo++++                ",
"++++++o..XOOOOOOOOOOOOX..oo+++++                ",
"+++++++.XOOOOOOOOOOOOOXX.oo+++++                ",
"+++++++.XOXOOOOXXOOOOXXX.oo+++++                ",
"+++++++.XX.XOOX..XOOX.XX.oo+++++                ",
"+++++++o...XOXX..XXXX...oo++++++                ",
"++++++++oo..XX.oo.XX..ooo+++++++                ",
"+++++++++ooo..oooo..ooo+++++++++                ",
"+++++++++++ooo++++ooo+++++++++++                ",
"++++++++++++++++++++++++++++++++                ",
"++++++++++++++++++++++++++++++++                ",
"++++++++++++++++++++++++++++++++                ",
"++++++++++++++++++++++++++++++++                ",
"++++++++++++++++++++++++++++++++                ",
"++++++++++++++++++++++++++++++++++++++++++++++++",
"++++++++++++++++++++++++++++++++++++++++++++++++",
"++++++++++++++++++++++++++++++++++++++++++++++++",
"++++++++++++++++++++++++++++++++++++++oooo++++++",
"++++++oo+++++++++++++oo+++++++++++++ooooooo+++++",
"++++ooooo++++++++++ooooo+++++++++++oooooooo+++++",
"+++oooooo+++++++++oooooo++++++++++oooooooo++++++",
"+++ooooo++++++++++ooooo+++oo++++++ooooooo+++++++",
"++++oo++++oo+++++++oo++++ooooo+++++oooo+++oo++++",
"++++++++++ooo++++++++++++oooooo+++++++++ooooo+++",
"+++++oo++++oo+++++++++oo++ooooo++++++++oooooo+++",
"+++++oo++++++++++++++ooo++++oo+++++++++ooooo++++",
"+++++++++++++++++++++oo+++++++++++++++++oo++++++",
"++++++++++++++++++++++++++++++++++++++++++++++++",
"++++++++++++++++++++++++++++++++++++++++++++++++",
"++++++++++++++++++++++++++++++++++++++++++++++++"
};
