/* XPM */
static char *_4ee74517993451ef26d21d242f202d1xC6Xu1DSZaVWE265[] = {
/* columns rows colors chars-per-pixel */
"48 96 9 1 ",
"  c None",
". c #193C3E",
"X c #3F2832",
"o c #6D483B",
"O c #265C42",
"+ c #9C6754",
"@ c #3E8948",
"# c #006DA8",
"$ c #0095E9",
/* pixels */
"@@@@@@@@@@@@@@@@@@@@@@@@@@@@@@@@@@@@@@@@@@@@@@@@",
"@@@@@@@@@@@@@@@@@@@@@@@@@@@@@@@@@@@@@@@@@@@@@@@@",
"@@@@@@@@@@@@@@@@@@@@@@@@@@@@@@@@@@@@@@@@@@@@@@@@",
"@@@@@@@@@@@@@@@@@@@@@@@@@@@@@@@@@@@@@@@@@@@@@@@@",
"@@@@@@@@@@@@@@@@@@@@@@@@@@@@@@@@@@@@@@@@@@@@@@@@",
"@@@@@@@@@@@@@@@@O@@@@OO@@@@@OO@@@@@@@@@@@@@@@@@@",
"@@@@@@@@@@@@@@@O.O@@O.O@@@@O.O@O@@@@@@@@@@@@@@@@",
"@@@@@@@@@@@@O@OO.OO@O.OO@@O..OO.O@@O@@@@@@@@@@@@",
"@@@@@@@@O@@OOOO.o.OO.o.OOO.oo..o.O@OO@@O@@@@@@@@",
"@@@@@@@O.OOO.OO.oo..ooo...oo+ooo.OO.O@O.O@@@@@@@",
"@@@@@@@@O.O.o..oo++ooo+ooooo+++oo..o.O.O@@@@@@@@",
"@@@@@@@@@O.oo++oo+++oo+++ooo++++o++oo.O@@@@@@@@@",
"@@@@@@@@@O.o++oXXo++XXX++oXXX++XXo++o.O@@@@@@@@@",
"@@@@@@@@OO.ooXX##XXX###XXX###XX##XXoo.OO@@@@@@@@",
"@@@@@@OOO.oXX######################XXo.OOO@@@@@@",
"@@@@@O...o+X###$$###$$$###$$$##$$###X+o...O@@@@@",
"@@@@@O..oo+X##$$$$$$$$$$$$$$$$$$$$##X+oo..O@@@@@",
"@@@@@@OO.o+X##$$$$$$$$$$$$$$$$$$$$##X+o.OO@@@@@@",
"@@@@@@@OO.oX##$$$$$$$$$$$$$$$$$$$$##Xo.OO@@@@@@@",
"@@@@@@@@O.X##$$$$$$$$$$$$$$$$$$$$$$##X.O@@@@@@@@",
"@@@@@@OOO.X##$$$$$$$$$$$$$$$$$$$$$$##X.OOO@@@@@@",
"@@@@@O...ooX##$$$$$$$$$$$$$$$$$$$$##Xoo...O@@@@@",
"@@@@@OOO..+X##$$$$$$$$$$$$$$$$$$$$##X+..OOO@@@@@",
"@@@@@@@OO.+X##$$$$$$$$$$$$$$$$$$$$##X+.OO@@@@@@@",
"@@@@@@@@O.+X##$$$$$$$$$$$$$$$$$$$$##X+.O@@@@@@@@",
"@@@@@@@@O.oX##$$$$$$$$$$$$$$$$$$$$##Xo.O@@@@@@@@",
"@@@@@@@OO.X##$$$$$$$$$$$$$$$$$$$$$$##X.OO@@@@@@@",
"@@@@@@OO.oX##$$$$$$$$$$$$$$$$$$$$$$##Xo.OO@@@@@@",
"@@@@@O..o+X##$$$$$$$$$$$$$$$$$$$$$$##X+o..O@@@@@",
"@@@@@OOO.+X##$$$$$$$$$$$$$$$$$$$$$$##X+.OOO@@@@@",
"@@@@@@@O.X##$$$$$$$$$$$$$$$$$$$$$$$$##X.O@@@@@@@",
"@@@@@@O.ooX##$$$$$$$$$$$$$$$$$$$$$$##Xoo.O@@@@@@",
"@@@@@O...o+X##$$$$$$$$$$$$$$$$$$$$##X+o...O@@@@@",
"@@@@@@OOO.oX##$$$$$$$$$$$$$$$$$$$$##Xo.OOO@@@@@@",
"@@@@@@@@OO.+X##$$$$$$$$$$$$$$$$$$##X+.OO@@@@@@@@",
"@@@@@@@@@O.o+X##$$$$$$$$$$$$$$$$##X+o.O@@@@@@@@@",
"@@@@@@@@@O.o+X##$###$$$###$$$$$$##X+o.O@@@@@@@@@",
"@@@@@@@@O.O.o..######$#####$$####..o.O.O@@@@@@@@",
"@@@@@@@O.OOO.OO.#...###...######.OO.O@O.O@@@@@@@",
"@@@@@@@@O@@OOOO..OOO.#.OOO.##..#.O@OO@@O@@@@@@@@",
"@@@@@@@@@@@@O@OO.OO@O.OO@@O..OO.O@@O@@@@@@@@@@@@",
"@@@@@@@@@@@@@@@OOO@@O.O@@@@O.O@O@@@@@@@@@@@@@@@@",
"@@@@@@@@@@@@@@@@@@@@@OO@@@@@OO@@@@@@@@@@@@@@@@@@",
"@@@@@@@@@@@@@@@@@@@@@@@@@@@@@@@@@@@@@@@@@@@@@@@@",
"@@@@@@@@@@@@@@@@@@@@@@@@@@@@@@@@@@@@@@@@@@@@@@@@",
"@@@@@@@@@@@@@@@@@@@@@@@@@@@@@@@@@@@@@@@@@@@@@@@@",
"@@@@@@@@@@@@@@@@@@@@@@@@@@@@@@@@@@@@@@@@@@@@@@@@",
"@@@@@@@@@@@@@@@@@@@@@@@@@@@@@@@@@@@@@@@@@@@@@@@@",
"$$$$$$$$$$$$$$$$$$$$$$$$$$$$$$$$                ",
"$$$$$$$$$$$$$$$$$$$$$$$$$$$$$$$$                ",
"$$$$$$$$$$$$$$$$$$$$$$$$$$$$$$$$                ",
"$$$$$$$$$$$$$$$$$$$$$$$$$$$$$$$$                ",
"$$$$$$$$$$$$##$$$$##$$$$$$$$$$$$                ",
"$$$$$$$$$$############$$$$$$$$$$                ",
"$$$$$$$$####..####..####$$$$$$$$                ",
"$$$$$$$###..OO.##.OO..###$$$$$$$                ",
"$$$$$$##...O@OO..OOOO...##$$$$$$                ",
"$$$$$##.OO.O@@O..O@@O.OO.##$$$$$                ",
"$$$$##X.O@O@@@@OO@@@@OOO.X##$$$$                ",
"$$$##Xo.O@@@@@@@@@@@@@@O.oX##$$$                ",
"$$$##X+..O@@@@@@@@@@@@O..+X##$$$                ",
"$$$##X.OO@@@@@@@@@@@@@@OO.X##$$$                ",
"$$$##X.O@@@@@@@@@@@@@@@@O.X##$$$                ",
"$$##Xoo.OO@@@@@@@@@@@@OO.ooX##$$                ",
"$$##Xoo.OO@@@@@@@@@@@@OO.ooX##$$                ",
"$$##X+.O@@@@@@@@@@@@@@@@O.+X##$$                ",
"$$##X+.OO@@@@@@@@@@@@@@OO.+X##$$                ",
"$$##X+o..O@@@@@@@@@@@@O..o+X##$$                ",
"$$##XoX.O@@@@@@@@@@@@@OO.XoX##$$                ",
"$$$##Xo.O@O@@@@OO@@@@OOO.oX##$$$                ",
"$$$##Xo.OO.O@@O..O@@O.OO.oX##$$$                ",
"$$$##Xoo...O@OO..OOOO...ooX##$$$                ",
"$$$##Xo+oo..OO.oo.OO..oo+oX##$$$                ",
"$$$##Xo++oXo..oooo..oXo++oX##$$$                ",
"$$$$##XX+oXooo+oo+oooXo+XX##$$$$                ",
"$$$$$###XXXo+++oo+++oXXX###$$$$$                ",
"$$$$$$#####X++oXXo++X#####$$$$$$                ",
"$$$$$$$$####XXX##XXX####$$$$$$$$                ",
"$$$$$$$$$$$##########$$$$$$$$$$$                ",
"$$$$$$$$$$$$###$$###$$$$$$$$$$$$                ",
"$$$$$$$$$$$$$$$$$$$$$$$$$$$$$$$$$$$$$$$$$$$$$$$$",
"$$$$$$$$$$$$$$$$$$$$$$$$$$$$$$$$$$$$$$$$$$$$$$$$",
"$$$$$$$$$$$$$$$$$$$$$$$$$$$$$$$$$$$$$$$$$$$$$$$$",
"$$$$$$$$$$$$$$$$$$$$$$$$$$$$$$$$$$$$$$####$$$$$$",
"$$$$$$##$$$$$$$$$$$$$##$$$$$$$$$$$$$#######$$$$$",
"$$$$#####$$$$$$$$$$#####$$$$$$$$$$$########$$$$$",
"$$$######$$$$$$$$$######$$$$$$$$$$########$$$$$$",
"$$$#####$$$$$$$$$$#####$$$##$$$$$$#######$$$$$$$",
"$$$$##$$$$##$$$$$$$##$$$$#####$$$$$####$$$##$$$$",
"$$$$$$$$$$###$$$$$$$$$$$$######$$$$$$$$$#####$$$",
"$$$$$##$$$$##$$$$$$$$$##$$#####$$$$$$$$######$$$",
"$$$$$##$$$$$$$$$$$$$$###$$$$##$$$$$$$$$#####$$$$",
"$$$$$$$$$$$$$$$$$$$$$##$$$$$$$$$$$$$$$$$##$$$$$$",
"$$$$$$$$$$$$$$$$$$$$$$$$$$$$$$$$$$$$$$$$$$$$$$$$",
"$$$$$$$$$$$$$$$$$$$$$$$$$$$$$$$$$$$$$$$$$$$$$$$$",
"$$$$$$$$$$$$$$$$$$$$$$$$$$$$$$$$$$$$$$$$$$$$$$$$"
};
