/* XPM */
static char *result[] = {
/* columns rows colors chars-per-pixel */
"48 48 145 2 ",
"   c #080004",
".  c #030108",
"X  c #14040E",
"o  c #030114",
"O  c #0C0516",
"+  c #070319",
"@  c #0C061A",
"#  c #09091D",
"$  c #140A1D",
"%  c #1A0C1C",
"&  c #140815",
"*  c #25111F",
"=  c #2F161F",
"-  c #31161F",
";  c #391A1A",
":  c #060E25",
">  c #1C1121",
",  c #081C39",
"<  c #191B31",
"1  c #2C1622",
"2  c #261A26",
"3  c #2A1C27",
"4  c #311720",
"5  c #351922",
"6  c #391E26",
"7  c #0E262F",
"8  c #0D2636",
"9  c #1F2D35",
"0  c #192239",
"q  c #2E2029",
"w  c #3E2227",
"e  c #352229",
"r  c #3C252D",
"t  c #47221E",
"y  c #451F22",
"u  c #432025",
"i  c #4A2528",
"p  c #502626",
"a  c #532827",
"s  c #5E2C27",
"d  c #532929",
"f  c #5E2E2A",
"g  c #442A31",
"h  c #502D31",
"j  c #453233",
"k  c #4E343A",
"l  c #5E3839",
"z  c #583436",
"x  c #642C25",
"c  c #642E28",
"v  c #61312D",
"b  c #633633",
"n  c #6A3D39",
"m  c #673D3A",
"M  c #5B473F",
"N  c #6C423E",
"B  c #65483F",
"V  c #63473E",
"C  c #0E2F40",
"Z  c #082E52",
"A  c #073259",
"S  c #343142",
"D  c #343E53",
"F  c #073661",
"G  c #4F3A40",
"H  c #0C4849",
"J  c #114E4F",
"K  c #125547",
"L  c #135D5D",
"P  c #315751",
"I  c #335B52",
"U  c #386653",
"Y  c #0F5761",
"T  c #084971",
"R  c #275176",
"E  c #594642",
"W  c #6D4341",
"Q  c #644A40",
"!  c #684C41",
"~  c #714643",
"^  c #744945",
"/  c #6C5144",
"(  c #725C55",
")  c #7B635A",
"_  c #456760",
"`  c #805F4C",
"'  c #80604D",
"]  c #967156",
"[  c #987257",
"{  c #9B7558",
"}  c #A97E5D",
"|  c #8F7364",
" . c #957765",
".. c #288944",
"X. c #258D62",
"o. c #4E9558",
"O. c #55A559",
"+. c #60A75A",
"@. c #858C73",
"#. c #B28662",
"$. c #B18B6A",
"%. c #B3926B",
"&. c #B69870",
"*. c #B99A71",
"=. c #8DA973",
"-. c #C7976B",
";. c #C29976",
":. c #D29F70",
">. c #D3A070",
",. c #D9A271",
"<. c #E1AC7C",
"1. c #02538B",
"2. c #125180",
"3. c #0E7498",
"4. c #27688B",
"5. c #0465A2",
"6. c #006AAB",
"7. c #026DA2",
"8. c #1272A3",
"9. c #006EB3",
"0. c #0070B3",
"q. c #007DC3",
"w. c #0481B1",
"e. c #0690BE",
"r. c #4097B0",
"t. c #0082C0",
"y. c #008ED1",
"u. c #3D9AC4",
"i. c #7DB5C2",
"p. c #93B482",
"a. c #81B3B3",
"s. c #DAAD83",
"d. c #D6AF8D",
"f. c #CEB98A",
"g. c #D1BA8B",
"h. c #E6B789",
"j. c #EDBB8C",
"k. c #E1B893",
"l. c #D7C593",
"z. c #FCCB9F",
"x. c #F0C59C",
"c. c #F7CBA0",
"v. c #FBCDA1",
"b. c #FFD1A6",
"n. c #3E8948",
/* pixels */
"n.n.n.n.n.n.n.n.n.n.n.n.n.n.n.n.n.n.n.n.n.n.n.n.n.n.n.n.n.n.n.n.n.n.n.n.n.n.n.n.n.n.n.n.n.n.n.n.",
"n.n.n.n.n.n.n.n.n.n.n.n.n.n.n.n.n.n.n.n.n.n.n.n.n.n.n.n.n.n.n.n.n.n.n.n.n.n.n.n.n.n.n.n.n.n.n.n.",
"n.n.n.n.n.n.n.n.n.n.n.n.n.n.n.n.n.n.n.n.n.n.n.n.n.n.n.n.n.n.n.n.n.n.n.n.n.n.n.n.n.n.n.n.n.n.n.n.",
"n.n.n.n.n.n.n.n.n.n.n.n.n.n.n.n.n.n.n.n.n.n.n.n.n.n.n.n.n.n.n.n.n.n.n.n.n.n.n.n.n.n.n.n.n.n.n.n.",
"n.n.n.n.n.n.n.n.n.n.n.n.n.n.n.n.n.n.n.n.n.n.n.n.n.n.n.n.n.n.n.n.n.n.n.n.n.n.n.n.n.n.n.n.n.n.n.n.",
"n.n.n.n.n.n.n.n.n.n.n.n.n.n.n.n.n.n.n.n.n.n.n.n.n.n.n.n.n.n.n.n.n.n.n.n.n.n.n.n.n.n.n.n.n.n.n.n.",
"n.n.n.n.n.n.n.n.n.n.n.n.n.n.n.n.n.n.n.n.@ @ @ @ @ @ @ # @ @ n.n.n.n.n.n.n.n.n.n.n.n.n.n.n.n.n.n.",
"n.n.n.n.n.n.n.n.n.n.n.n.n.n.n.n.n.n.n.* 5 5 w r g r r r w = $ n.n.n.n.n.n.n.n.n.n.n.n.n.n.n.n.n.",
"n.n.n.n.n.n.n.n.n.n.n.n.n.n.n.n.n.n.> w v v n ~ ~ ~ ~ ~ N a * $ n.n.n.n.n.n.n.n.n.n.n.n.n.n.n.n.",
"n.n.n.n.n.n.n.n.n.n.n.n.n.n.n.n.n.> k N N N ~ ~ ~ ~ ~ ~ N N a - @ n.n.n.n.n.n.n.n.n.n.n.n.n.n.n.",
"n.n.n.n.n.n.n.n.n.n.n.n.n.n.n.n.3 g W ^ ~ ~ ~ W ~ ~ ~ ~ ^ N N 6 + n.n.n.n.n.n.n.n.n.n.n.n.n.n.n.",
"n.n.n.n.n.n.n.n.n.n.n.n.n.n.n.@ g ~ ~ ~ ~ ~ ~ ~ ~ ~ ~ ~ ~ ~ N g % n.n.n.n.n.n.n.n.n.n.n.n.n.n.n.",
"n.n.n.n.n.n.n.n.n.n.n.n.n.n.n.@ r ~ ~ ~ W ~ ~ ~ ~ W ~ ~ ~ N ^ b u % n.n.n.n.n.n.n.n.n.n.n.n.n.n.",
"n.n.n.n.n.n.n.n.n.n.n.n.n.n.n.@ r ~ ~ N n ~ ~ ~ n h r e h N N N d % @ n.n.n.n.n.n.n.n.n.n.n.n.n.",
"n.n.n.n.n.n.n.n.n.n.n.n.n.n.n.@ r W N b v N ~ n d w q q w d b b p % + n.n.n.n.n.n.n.n.n.n.n.n.n.",
"n.n.n.n.n.n.n.n.n.n.n.n.n.n.n.@ 5 v v c v N n d * B #.#.B % > u p % + n.n.n.n.n.n.n.n.n.n.n.n.n.",
"n.n.n.n.n.n.n.n.n.n.n.n.n.n.n.@ 4 s s y ; b i 6 B $.j.j.$.Q > % 4 % n.n.n.n.n.n.n.n.n.n.n.n.n.n.",
"n.n.n.n.n.n.n.n.n.n.n.n.n.n.n.$ 5 v a w e t 6 j { s.c.c.s.{ 3 + @ n.n.n.n.n.n.n.n.n.n.n.n.n.n.n.",
"n.n.n.n.n.n.n.n.n.n.n.n.n.n.n.@ r l 1 ! ] e B { j  .c.c. .3 $ + n.n.n.n.n.n.n.n.n.n.n.n.n.n.n.n.",
"n.n.n.n.n.n.n.n.n.n.n.n.n.n.n.@ g l % / -.) $.;.3 ( c.c.) o + n.n.n.n.n.n.n.n.n.n.n.n.n.n.n.n.n.",
"n.n.n.n.n.n.n.n.n.n.n.n.n.n.n.@ r k r ' >.>.j.d.E  .c.c. .3 $ + n.n.n.n.n.n.n.n.n.n.n.n.n.n.n.n.",
"n.n.n.n.n.n.n.n.n.n.n.n.n.n.n.n.$ r [ -.:.>.h.x.d.k.c.c.s.] 3 o n.n.n.n.n.n.n.n.n.n.n.n.n.n.n.n.",
"n.n.n.n.n.n.n.n.n.n.n.n.n.n.n.n.n.2 / } ,.,.<.j.v.b.z.j.$./ 3 n.n.n.n.n.n.n.n.n.n.n.n.n.n.n.n.n.",
"n.n.n.n.n.n.n.n.n.n.n.n.n.n.n.n.n.n.# E %.%.$.&.f.l.g.*.M @ n.n.n.n.n.n.n.n.n.n.n.n.n.n.n.n.n.n.",
"n.n.n.n.n.n.n.n.n.n.n.n.n.n.n.n.n.n.@ 9 I I P U o.O.o.U 9 @ n.n.n.n.n.n.n.n.n.n.n.n.n.n.n.n.n.n.",
"n.n.n.n.n.n.n.n.n.n.n.n.n.n.n.n.n.n.@ 7 H H _ @.=.O...K 7 @ n.n.n.n.n.n.n.n.n.n.n.n.n.n.n.n.n.n.",
"n.n.n.n.n.n.n.n.n.n.n.n.n.n.n.n.n.n.@ C Y J @.v.v.p.X.L 8 @ n.n.n.n.n.n.n.n.n.n.n.n.n.n.n.n.n.n.",
"n.n.n.n.n.n.n.n.n.n.n.n.n.n.n.n.n.n.@ T w.Y @.v.v.a.e.7.A $ n.n.n.n.n.n.n.n.n.n.n.n.n.n.n.n.n.n.",
"n.n.n.n.n.n.n.n.n.n.n.n.n.n.n.n.n.% - D 4.3.r.i.i.u.q.9.F @ n.n.n.n.n.n.n.n.n.n.n.n.n.n.n.n.n.n.",
"n.n.n.n.n.n.n.n.n.n.n.n.n.n.n.n.+ % p x G 8.t.t.y.q.6.6.F $ n.n.n.n.n.n.n.n.n.n.n.n.n.n.n.n.n.n.",
"n.n.n.n.n.n.n.n.n.n.n.n.n.n.n.n.+ % p x d 0 , Z 5.9.6.6.F @ n.n.n.n.n.n.n.n.n.n.n.n.n.n.n.n.n.n.",
"n.n.n.n.n.n.n.n.n.n.n.n.n.n.n.n.@ $ 4 5 4 X   @ Z 1.5.R S 4 % n.n.n.n.n.n.n.n.n.n.n.n.n.n.n.n.n.",
"n.n.n.n.n.n.n.n.n.n.n.n.n.n.n.n.n.@ @ @ O n.n.n.O A 2.k x p % + n.n.n.n.n.n.n.n.n.n.n.n.n.n.n.n.",
"n.n.n.n.n.n.n.n.n.n.n.n.n.n.n.n.n.n.n.n.n.n.n.n.n.: < d c p % + n.n.n.n.n.n.n.n.n.n.n.n.n.n.n.n.",
"n.n.n.n.n.n.n.n.n.n.n.n.n.n.n.n.n.n.n.n.n.n.n.n.n.. X ; t ; & . n.n.n.n.n.n.n.n.n.n.n.n.n.n.n.n.",
"n.n.n.n.n.n.n.n.n.n.n.n.n.n.n.n.n.n.n.n.n.n.n.n.n.n.n.n.n.n.n.n.n.n.n.n.n.n.n.n.n.n.n.n.n.n.n.n.",
"n.n.n.n.n.n.n.n.n.n.n.n.n.n.n.n.n.n.n.n.n.n.n.n.n.n.n.n.n.n.n.n.n.n.n.n.n.n.n.n.n.n.n.n.n.n.n.n.",
"n.n.n.n.n.n.n.n.n.n.n.n.n.n.n.n.n.n.n.n.n.n.n.n.n.n.n.n.n.n.n.n.n.n.n.n.n.n.n.n.n.n.n.n.n.n.n.n.",
"n.n.n.n.n.n.n.n.n.n.n.n.n.n.n.n.n.n.n.n.n.n.n.n.n.n.n.n.n.n.n.n.n.n.n.n.n.n.n.n.n.n.n.n.n.n.n.n.",
"n.n.n.n.n.n.n.n.n.n.n.n.n.n.n.n.n.n.n.n.n.n.n.n.n.n.n.n.n.n.n.n.n.n.n.n.n.n.n.n.n.n.n.n.n.n.n.n.",
"n.n.n.n.n.n.n.n.n.n.n.n.n.n.n.n.n.n.n.n.n.n.n.n.n.n.n.n.n.n.n.n.n.n.n.n.n.n.n.n.n.n.n.n.n.n.n.n.",
"n.n.n.n.n.n.n.n.n.n.n.n.n.n.n.n.n.n.n.n.n.n.n.n.n.n.n.n.n.n.n.n.n.n.n.n.n.n.n.n.n.n.n.n.n.n.n.n.",
"n.n.n.n.n.n.n.n.n.n.n.n.n.n.n.n.n.n.n.n.n.n.n.n.n.n.n.n.n.n.n.n.n.n.n.n.n.n.n.n.n.n.n.n.n.n.n.n.",
"n.n.n.n.n.n.n.n.n.n.n.n.n.n.n.n.n.n.n.n.n.n.n.n.n.n.n.n.n.n.n.n.n.n.n.n.n.n.n.n.n.n.n.n.n.n.n.n.",
"n.n.n.n.n.n.n.n.n.n.n.n.n.n.n.n.n.n.n.n.n.n.n.n.n.n.n.n.n.n.n.n.n.n.n.n.n.n.n.n.n.n.n.n.n.n.n.n.",
"n.n.n.n.n.n.n.n.n.n.n.n.n.n.n.n.n.n.n.n.n.n.n.n.n.n.n.n.n.n.n.n.n.n.n.n.n.n.n.n.n.n.n.n.n.n.n.n.",
"n.n.n.n.n.n.n.n.n.n.n.n.n.n.n.n.n.n.n.n.n.n.n.n.n.n.n.n.n.n.n.n.n.n.n.n.n.n.n.n.n.n.n.n.n.n.n.n.",
"n.n.n.n.n.n.n.n.n.n.n.n.n.n.n.n.n.n.n.n.n.n.n.n.n.n.n.n.n.n.n.n.n.n.n.n.n.n.n.n.n.n.n.n.n.n.n.n."
};
