/* XPM */
static char *result[] = {
/* columns rows colors chars-per-pixel */
"96 48 83 1 ",
"  c #010000",
". c #090504",
"X c #0F0A07",
"o c #100907",
"O c #1A0A06",
"+ c #140D09",
"@ c #1D0E0B",
"# c #17100B",
"$ c #1A120C",
"% c #25140E",
"& c #251510",
"* c #251912",
"= c #291C14",
"- c #321E16",
"; c #2E2016",
": c #332117",
"> c #362419",
", c #3B261B",
"< c #3C291D",
"1 c #37323D",
"2 c #3B333B",
"3 c #422D1F",
"4 c #49311F",
"5 c #452F20",
"6 c #482F21",
"7 c #473022",
"8 c #4B3323",
"9 c #4E392F",
"0 c #503625",
"q c #533926",
"w c #593C24",
"e c #563C29",
"r c #5A3E2A",
"t c #433636",
"y c #4E3930",
"u c #5E422D",
"i c #644526",
"p c #6A4926",
"a c #61452F",
"s c #6B492A",
"d c #79542F",
"f c #7E582C",
"g c #644730",
"h c #664831",
"j c #6C4C34",
"k c #704F36",
"l c #725036",
"z c #7A5530",
"x c #755338",
"c c #79563A",
"v c #725939",
"b c #7B583B",
"n c #4A4753",
"m c #7F6440",
"M c #4F5266",
"N c #50546A",
"B c #525871",
"V c #845B2E",
"C c #825F37",
"Z c #885E30",
"A c #83653E",
"S c #9D6E34",
"D c #A77536",
"F c #A87537",
"G c #A7773B",
"H c #977E4F",
"J c #B78A4A",
"K c #B2975C",
"L c #BB9858",
"P c #C78C40",
"I c #CA9044",
"U c #D89A47",
"Y c #DEAA56",
"T c #ECAC50",
"R c #EEB257",
"E c #D7B86D",
"W c #E3BB68",
"Q c #F2C065",
"! c #5F6A89",
"~ c #667497",
"^ c #6E7FA6",
"/ c #6F80A7",
"( c None",
/* pixels */
"^~B1&OO@@@%@@@@@@@@@%@@%@@@@%@@@@@@@@%@@@OO&1B~^^~B1&@@@@@@%@@@@@@@@@@@@@@@@@@@%@@@@@@@@@@O%1B~^",
"~!N2-%%&&&&&%&&&&&&&%%&&%&%%%%&&%%%%%%%%&%%=2M!~~!M2&%%%&&&&%&&&&&&&&&%%&&&&%%%%%%%%%%&&&&%-1N!~",
"BNnt,-,,,-3-,,3->,>>,>,,,,,,,,,,,,,,,,,,-3-,tnMBBMnt<,,,,,,-,,,,>,,,3,,,,,3,,,,3,,,,3-3,,-,<tnMB",
"12t9errerrrrrrrrrrrurrrwrrerrwrwrrerrerrrrueyt2112tyerrrerrrrrrrrrerwrerwrrwrewrrrerrrrrerreyt21",
"&=,ejklkkkkkkkkkkkkkkkkkkkkkkkkkkkkkkkkkkllke5=&&&5ejkkkkkkkkkkkkkkkkkkkkkkkkkkkkkkkkkkkkllje5=&",
"O%,rlCbccccccccccccccccccccccccccccccccccCblr-%OO%,rkCcccxCxCkxCcccccccccccccccccccbcxccccCkr-%O",
"O%,elbbbccccxCccbccbccvcccccccccccccccccccbxr3%OO%-rkCccccCxccxCccccccccccccccccccCxcccccCbkr-%O",
"@&,ekxlllkkkkklkkkkkkkkvkkkkkkkxkkkkkkkkkxxkr-%@@&<rkxxkkkkkkkkjkllklklkkkkkkkkkkklkkkkkklxke3%@",
"@%>0ahguaargruuaaaauauuuuauuuuuuaaaaauuaughhq,%@@%,0ghguuuuaaaaagaaaaaauaaaaaaaaaauauuguagjgq-%@",
"@%-6ee996677887877777787977787888686878779ee6-%@@&-6ee986t66t60678888797888888886006888889ee4-%%",
"%%-308<<-,<<><<>,,,,<><>>,><,,,>,,>>><,>>5803-%$@%-5085,,,,,>:-,>>>>>>;;>>>>>>>;>>>>>>>>><883-%@",
"@%:4e0<>-<<<<<>>;>>,<<<<,<,<,,>:>><<<,>>>58e8-%@@&-8e0<>-,,-=&&&*$******$*$*$**%*&&&**$$*>8e4-%%",
"@%,0ur7><<5675<>>><77774<3775<,>><5665<>>7uu0>%@@&,0ay5,>5<>&oooXXXXX+X+XX+Xo+X+.X+XXXXX+;8uq,%@",
"@%,eja8,<580985<,<788080900085<><580085,<7aju<%@@%3rja8,<78>@.  .                       .=qhu<&@",
"@%3rjg8,,58q0065<48000000q0088<><600005<,8gju<%@@%,rjg8><78>$.                          .=9ju,%@",
"@%,rja8,,50q008878800000000006<><58ee85<,7gjr<%@@%3rjg8<<88>$                           .*qju>%$",
"@%-rka6,,300000800800000000084<><60qq85,,0ajr<%@@%3rku6<,66,$                           .=0jr,%@",
"%&3rka6,<78q000000000000000006335600085,-6aju,&@@%3rja8,<68>$                           .=0jr3&@",
"@%3rjg8<<300000000000000000008868800q05<56akr<&@@%,rka0-<86>$.                           =0kr5%@",
"@%,rjg8,,400000000000800000008000800085<,6akr<&@@&,rka83<88>$                           .=0jr,%@",
"@&<rjg6,<380000008000000000800000806866<,8akr5%@@&<rka8-<78>$.                          .=ejr3%@",
"@&<rjg8,<300000000000000000000000868065>,8aju-%O@%<uka8,<78>$                            =0jw3%@",
"@&,rja7,<4000000000000000000000000rree8<<8akr5&O@&,rja0,<88>$.                          .=qjr3&@",
"%&<rja8,<7800008000000800000088eahHACzu5<6aje5&@@%<rja6,<78>$                            =qhr3&$",
"@&,rjg6,,58q0000000000800000008evHLLJGCw<8ajr<&@@%<eja7,<88>$.                          .*qhu<&@",
"@&3rjg6,<5000000008000000000088wmKEWTISi<7ukr<&@@%<uja8,<78>$                           .=qju<&@",
"@%,rjg8,<5800008000000000000088rALWWRUDp<5rjr,&@@%<uka7<<78>$.                          .*qju,%@",
"@%,rjg8<<58q0000000000000080888rCJYRTUDp57gjr5&@@%<uja7,<88:$                           .=qhe<&@",
"@%,rka6<<5800000000800800000088wfFPUUPSi55rjr3%@@%<rja8,<78>$.                          .=0jr3&@",
"@%,rja6,<5000000000000000000088esZSDDSfw56gjr3%@@&3rja8<<84>$                           .=0jr3&@",
"@&3rja83,78000000000000000000000uupppp0356akr3%@@%3rja8<<88>$.                           =qjr3&@",
"@&3rja8-,78000008000000000800008433<<<,:-8alr-%@@%,rja8><78>$                           .=qhw3&@",
"@&>uka7,,40q008886800000000000004<,>>,>>,8gjr<&@@%5rja8><85>$                           .*qju,%@",
"@%<eja8,<3800883336000000000000084437<<>>7gjr<&@O&3rja8<<78<$.                          .;qhu<%$",
"@&,uka8,,500e86<,<600000000800000080987>,8gjr,&@O%-ujg6<<78>$.                          .*0ju<%@",
"@&,uja7,<58q005<,,300000000000000000087<,5gjr5&@@%5rja8,<88-$                           .=qje<%@",
"@&3rjg8<<480q86,><580000000000000000088<,8gjr,&@@&<rka0,,88>$.                          .=ehr<&@",
"@&,rja8><380q86<><500000800000080000003<<6gjr3%@@&<rja6,<78>$                            =0jr3&@",
"@%3rlh8><70e008<,<600000q00e0888880ee07<,8aku3%@@%,uka0,<88,$.                          .=qju3&@",
"@%3rlh8<<60ee883,<80eqqqqqq0085<3800e88<36gkr3&@@&5rkh8,<88,$                           .=qku,&@",
"@%,qgu5>>388083>:,588888888885,>,348883>>7uge,&@O%<egu7>,55:$.                          .*0gr,&O",
"@%-383:*==>>:::=*=;>>:>>>>>>>==*=-:>>>===:<85-%@$%:<75;*=;;*+                            $,7<:&%",
"%%%%*$#++#$$$$$+X+#$$$$$$$@$$+++++$$$#++X#$*&&$%&%%**$#++$#+.                            X#*&&@%",
"%@+o...  .  .     .   .  . . .   . .. . .....+%%@@#X...    .                              ..X@@%",
"+O..                                        .X+OO+o                                         .X+O",
"... (((((((((((((((((((((((((((((((((((((((( ...... (((((((((((((((((((((((((((((((((((((((( ...",
"   ((((((((((((((((((((((((((((((((((((((((((      ((((((((((((((((((((((((((((((((((((((((((   ",
"   ((((((((((((((((((((((((((((((((((((((((((      ((((((((((((((((((((((((((((((((((((((((((   "
};
