/* XPM */
static char *result[] = {
/* columns rows colors chars-per-pixel */
"48 48 106 2 ",
"   c #05030B",
".  c #090412",
"X  c #0A0514",
"o  c #0B0616",
"O  c #0D0518",
"+  c #0C0519",
"@  c #0D0519",
"#  c #0C0618",
"$  c #0E0719",
"%  c #0D071B",
"&  c #0E071B",
"*  c #130F1B",
"=  c #140D20",
"-  c #1A1425",
";  c #1E182A",
":  c #211B2D",
">  c #261F30",
",  c #272034",
"<  c #2C2535",
"1  c #2F2837",
"2  c #2F2838",
"3  c #2E283A",
"4  c #312A3B",
"5  c #322B3A",
"6  c #342F3F",
"7  c #383344",
"8  c #3B3645",
"9  c #403A48",
"0  c #403A4B",
"q  c #413C4B",
"w  c #433D4F",
"e  c #4A434F",
"r  c #4A4551",
"t  c #4F4B55",
"y  c #4E4956",
"u  c #4E4858",
"i  c #564F59",
"p  c #59545F",
"a  c #554F60",
"s  c #575161",
"d  c #5A5561",
"f  c #5B5662",
"g  c #5E5A65",
"h  c #5E5768",
"j  c #66616B",
"k  c #6E676E",
"l  c #676271",
"z  c #6A6574",
"x  c #6E6A74",
"c  c #716C74",
"v  c #74717A",
"b  c #7C787F",
"n  c #797482",
"m  c #7C7785",
"M  c #7E7980",
"N  c #7E7982",
"B  c #7C7986",
"V  c #817E86",
"C  c #868083",
"Z  c #87838A",
"A  c #8B8688",
"S  c #8A858A",
"D  c #878290",
"F  c #8D8A95",
"G  c #928E93",
"H  c #938F9C",
"J  c #9E9898",
"K  c #A29E9F",
"L  c #A49E9D",
"P  c #9D99A5",
"I  c #A39FA1",
"U  c #AAA4A2",
"Y  c #A8A4AA",
"T  c #AEA9AB",
"R  c #A9A6B0",
"E  c #ADAAB4",
"W  c #AEAAB6",
"Q  c #B3B0BB",
"!  c #B6B3BD",
"~  c #B8B5BF",
"^  c #C2BCB7",
"/  c #C4BFBB",
"(  c #C7C1BC",
")  c #BFBCC5",
"_  c #CEC8C1",
"`  c #C6C4CC",
"'  c #C8C5CD",
"]  c #C8C6CD",
"[  c #CAC7CF",
"{  c #D5D0C9",
"}  c #DAD4CC",
"|  c #CDCBD2",
" . c #CECCD2",
".. c #D0CDD2",
"X. c #D1CFD3",
"o. c #D5D2D3",
"O. c #DBD7D4",
"+. c #DED9D5",
"@. c #DEDAD5",
"#. c #E0DBD2",
"$. c #E2DDD5",
"%. c #E3DDD5",
"&. c #E3DED6",
"*. c #E5DFD6",
"=. c #E6E0D6",
"-. c None",
/* pixels */
"-.-.-.-.-.-.-.-.-.-.-.-.-.-.-.-.-.-.-.-.-.-.-.-.-.-.-.-.-.-.-.-.-.-.-.-.-.-.-.-.-.-.-.-.-.-.-.-.",
"-.-.-.-.-.-.-.-.-.-.-.-.-.-.-.-.-.-.-.-.-.-.-.-.-.-.-.-.-.-.-.-.-.-.-.-.-.-.-.-.-.-.-.-.-.-.-.-.",
"-.-.-.-.-.-.-.-.-.-.-.-.-.-.-.-.-.-.-.-.-.-.-.-.-.-.-.-.-.-.-.-.-.-.-.-.-.-.-.-.-.-.-.-.-.-.-.-.",
"-.-.-.-.-.-.-.-.-.-.-.-.-.-.-.-.-.-.-.-.-.-.-.-.-.-.-.-.-.-.-.-.-.-.-.-.-.-.-.-.-.-.-.-.-.-.-.-.",
"-.-.-.-.-.-.-.-.-.-.-.-.-.-.-.-.-.-.-.-.-.-.-.-.-.-.-.-.-.-.-.-.-.-.-.-.-.-.-.-.-.-.-.-.-.-.-.-.",
"-.-.-.-.-.-.-.-.-.-.-.-.-.-.-.-.-.-.-.-.-.-.-.-.-.-.-.-.-.-.-.-.-.-.-.-.-.-.-.-.-.-.-.-.-.-.-.-.",
"-.-.-.-.-.-.-.-.-.-.-.-.-.-.-.-.-.-.& & & & & & & & % -.-.-.-.-.-.-.-.-.-.-.-.-.-.-.-.-.-.-.-.-.",
"-.-.-.-.-.-.-.-.-.-.-.-.-.-.-.-.& 0 H R E E E E E E B & -.-.-.-.-.-.-.-.-.-.-.-.-.-.-.-.-.-.-.-.",
"-.-.-.-.-.-.-.-.-.-.-.-.-.-.-.-.0 z ~ [ ..o.o.o.o.o.Y u -.-.-.-.-.-.-.-.-.-.-.-.-.-.-.-.-.-.-.-.",
"-.-.-.-.-.-.-.-.-.-.-.-.-.-.-.& H ~ | | o.=.=.=.=.=.+.| 3 % -.-.-.-.-.-.-.-.-.-.-.-.-.-.-.-.-.-.",
"-.-.-.-.-.-.-.-.-.-.-.-.-.& 0 H ) [ | @.&.=.=.=.=.=.*.$.( A & -.-.-.-.-.-.-.-.-.-.-.-.-.-.-.-.-.",
"-.-.-.-.-.-.-.-.-.-.-.-.-.& w W ' ..o.&.=.=.=.=.=.=.=.=.=.J & -.-.-.-.-.-.-.-.-.-.-.-.-.-.-.-.-.",
"-.-.-.-.-.-.-.-.-.-.-.-.-.& w W ' o.=.=.=.=.=.=.=.=.=.=.=.J & -.-.-.-.-.-.-.-.-.-.-.-.-.-.-.-.-.",
"-.-.-.-.-.-.-.-.-.-.-.-.-.& w W ] o.=.=.=.=.=.=.=.=.=.=.=.J & -.-.-.-.-.-.-.-.-.-.-.-.-.-.-.-.-.",
"-.-.-.-.-.-.-.-.-.-.-.-.-.& w W ' o.=.=._ J } =.=.=.=.=.U k & -.-.-.-.-.-.-.-.-.-.-.-.-.-.-.-.-.",
"-.-.-.-.-.-.-.-.-.-.-.-.-.& w W ' o.=.=.J & ^ =.=.=.=.=.5 & & -.-.-.-.-.-.-.-.-.-.-.-.-.-.-.-.-.",
"-.-.-.-.-.-.-.-.-.-.-.-.-.& w W ]  .X.%.J & < k =.=.U 5 = & & -.-.-.-.-.-.-.-.-.-.-.-.-.-.-.-.-.",
"-.-.-.-.-.-.-.-.-.-.-.-.-.$ 8 n ! ` | O.T u u N +.+.T u u 7 & -.-.-.-.-.-.-.-.-.-.-.-.-.-.-.-.-.",
"-.-.-.-.-.-.-.-.-.-.-.-.-.-.-.& H ~ | | | | | | | | | | | F & -.-.-.-.-.-.-.-.-.-.-.-.-.-.-.-.-.",
"-.-.-.-.-.-.-.-.-.-.-.-.-.-.-.-., s Q Q D 3 P D 3 P D 3 P m & -.-.-.-.-.-.-.-.-.-.-.-.-.-.-.-.-.",
"-.-.-.-.-.-.-.-.-.-.-.-.-.-.-.-.$ 8 n n a & l a & l a & l h % -.-.-.-.-.-.-.-.-.-.-.-.-.-.-.-.-.",
"-.-.-.-.-.-.-.-.-.-.-.-.-.-.-.-.-.-.& & & & & & & & & & & % -.-.-.-.-.-.-.-.-.-.-.-.-.-.-.-.-.-.",
"-.-.-.-.-.-.-.-.-.-.-.-.-.-.-.-.-.-.-.+ e ^ b y & g y & L A & -.-.-.-.-.-.-.-.-.-.-.-.-.-.-.-.-.",
"-.-.-.-.-.-.-.-.-.-.-.-.-.-.-.-.-.-.-.$ r J K c & y p i _ J & -.-.-.-.-.-.-.-.-.-.-.-.-.-.-.-.-.",
"-.-.-.-.-.-.-.-.-.-.-.-.-.-.-.-.-.-.-.-.-.& ^ J & & i =.=.J & -.-.-.-.-.-.-.-.-.-.-.-.-.-.-.-.-.",
"-.-.-.-.-.-.-.-.-.-.-.-.-.-.-.-.-.-.-.& @ & b j & g d 5 5 1 -.-.-.-.-.-.-.-.-.-.-.-.-.-.-.-.-.-.",
"-.-.-.-.-.-.-.-.-.-.-.-.-.-.-.-.-.-.-.t i i d q & y q & & % -.-.-.-.-.-.-.-.-.-.-.-.-.-.-.-.-.-.",
"-.-.-.-.-.-.-.-.-.-.-.-.-.-.-.-.-.-.& ^ =.=.5 & & & & & & % -.-.-.-.-.-.-.-.-.-.-.-.-.-.-.-.-.-.",
"-.-.-.-.-.-.-.-.-.-.-.-.-.-.-.-.-.-.& ^ =.=.5 & & g S ^ ^ A & -.-.-.-.-.-.-.-.-.-.-.-.-.-.-.-.-.",
"-.-.-.-.-.-.-.-.-.-.-.-.-.-.-.-.-.-.& C J J > & & y M / #.J & -.-.-.-.-.-.-.-.-.-.-.-.-.-.-.-.-.",
"-.-.-.-.-.-.-.-.-.-.-.-.-.-.-.-.-.-.& & & & & & & & 6 V { J & -.-.-.-.-.-.-.-.-.-.-.-.-.-.-.-.-.",
"-.-.-.-.-.-.-.-.-.-.-.-.-.-.-.-.& 4 x x x x ; # -.-.* : 2 1 -.-.-.-.-.-.-.-.-.-.-.-.-.-.-.-.-.-.",
"-.-.-.-.-.-.-.-.-.-.-.-.-.-.-.-.$ 9 I Z v f - . -.-.  o o X -.-.-.-.-.-.-.-.-.-.-.-.-.-.-.-.-.-.",
"-.-.-.-.-.-.-.-.-.-.-.-.-.-.-.-.O i =.G f & -.-.-.-.-.-.-.-.-.-.-.-.-.-.-.-.-.-.-.-.-.-.-.-.-.-.",
"-.-.-.-.-.-.-.-.-.-.-.-.-.-.-.-.-.-.-.-.-.-.-.-.-.-.-.-.-.-.-.-.-.-.-.-.-.-.-.-.-.-.-.-.-.-.-.-.",
"-.-.-.-.-.-.-.-.-.-.-.-.-.-.-.-.-.-.-.-.-.-.-.-.-.-.-.-.-.-.-.-.-.-.-.-.-.-.-.-.-.-.-.-.-.-.-.-.",
"-.-.-.-.-.-.-.-.-.-.-.-.-.-.-.-.-.-.-.-.-.-.-.-.-.-.-.-.-.-.-.-.-.-.-.-.-.-.-.-.-.-.-.-.-.-.-.-.",
"-.-.-.-.-.-.-.-.-.-.-.-.-.-.-.-.-.-.-.-.-.-.-.-.-.-.-.-.-.-.-.-.-.-.-.-.-.-.-.-.-.-.-.-.-.-.-.-.",
"-.-.-.-.-.-.-.-.-.-.-.-.-.-.-.-.-.-.-.-.-.-.-.-.-.-.-.-.-.-.-.-.-.-.-.-.-.-.-.-.-.-.-.-.-.-.-.-.",
"-.-.-.-.-.-.-.-.-.-.-.-.-.-.-.-.-.-.-.-.-.-.-.-.-.-.-.-.-.-.-.-.-.-.-.-.-.-.-.-.-.-.-.-.-.-.-.-.",
"-.-.-.-.-.-.-.-.-.-.-.-.-.-.-.-.-.-.-.-.-.-.-.-.-.-.-.-.-.-.-.-.-.-.-.-.-.-.-.-.-.-.-.-.-.-.-.-.",
"-.-.-.-.-.-.-.-.-.-.-.-.-.-.-.-.-.-.-.-.-.-.-.-.-.-.-.-.-.-.-.-.-.-.-.-.-.-.-.-.-.-.-.-.-.-.-.-.",
"-.-.-.-.-.-.-.-.-.-.-.-.-.-.-.-.-.-.-.-.-.-.-.-.-.-.-.-.-.-.-.-.-.-.-.-.-.-.-.-.-.-.-.-.-.-.-.-.",
"-.-.-.-.-.-.-.-.-.-.-.-.-.-.-.-.-.-.-.-.-.-.-.-.-.-.-.-.-.-.-.-.-.-.-.-.-.-.-.-.-.-.-.-.-.-.-.-.",
"-.-.-.-.-.-.-.-.-.-.-.-.-.-.-.-.-.-.-.-.-.-.-.-.-.-.-.-.-.-.-.-.-.-.-.-.-.-.-.-.-.-.-.-.-.-.-.-.",
"-.-.-.-.-.-.-.-.-.-.-.-.-.-.-.-.-.-.-.-.-.-.-.-.-.-.-.-.-.-.-.-.-.-.-.-.-.-.-.-.-.-.-.-.-.-.-.-.",
"-.-.-.-.-.-.-.-.-.-.-.-.-.-.-.-.-.-.-.-.-.-.-.-.-.-.-.-.-.-.-.-.-.-.-.-.-.-.-.-.-.-.-.-.-.-.-.-.",
"-.-.-.-.-.-.-.-.-.-.-.-.-.-.-.-.-.-.-.-.-.-.-.-.-.-.-.-.-.-.-.-.-.-.-.-.-.-.-.-.-.-.-.-.-.-.-.-."
};
