/* XPM */
static char *result[] = {
/* columns rows colors chars-per-pixel */
"48 48 89 1 ",
"  c #05030B",
". c #090310",
"X c #090412",
"o c #0B0616",
"O c #0C0616",
"+ c #0D0518",
"@ c #0E0719",
"# c #0C051A",
"$ c #0C071B",
"% c #0D071B",
"& c #0E061B",
"* c #0E071B",
"= c #110C16",
"- c #140D20",
"; c #1A1325",
": c #1E1729",
"> c #20192C",
", c #211B2D",
"< c #241E31",
"1 c #261F30",
"2 c #251E33",
"3 c #282133",
"4 c #292235",
"5 c #2C2535",
"6 c #2D2637",
"7 c #2E2739",
"8 c #2E2938",
"9 c #2E2839",
"0 c #322B3A",
"q c #342F3F",
"w c #3C3644",
"e c #433D4F",
"r c #443F4E",
"t c #4A4551",
"y c #4C4656",
"u c #4F4B55",
"i c #4E4858",
"p c #4E4A58",
"a c #504954",
"s c #564F59",
"d c #5B5662",
"f c #67646E",
"g c #6B656E",
"h c #6A6576",
"j c #6E6A74",
"k c #787481",
"l c #7B7780",
"z c #797482",
"x c #7F7B88",
"c c #817E86",
"v c #868083",
"b c #86828F",
"n c #8D8A95",
"m c #918D9A",
"M c #938F9C",
"N c #9E9898",
"B c #9C98A4",
"V c #AAA4A2",
"C c #A5A1AD",
"Z c #B6B0AC",
"A c #ADAAB4",
"S c #AEAAB6",
"D c #B1AEB7",
"F c #B9B6BE",
"G c #C2BCB7",
"H c #C8C2BC",
"J c #BAB7C0",
"K c #BCB9C2",
"L c #BFBCC6",
"P c #CEC8C1",
"I c #C3C0C9",
"U c #C5C2C8",
"Y c #C8C5CD",
"T c #C8C6CD",
"R c #D0CCCA",
"E c #CCCAD1",
"W c #CDCBD2",
"Q c #D0CED3",
"! c #D1CFD3",
"~ c #D3D0D3",
"^ c #D4D1D3",
"/ c #D5D2D3",
"( c #DBD7D4",
") c #DED9D5",
"_ c #E0DBD5",
"` c #E2DDD5",
"' c #E5DFD6",
"] c #E6E0D6",
"[ c #3E8948",
/* pixels */
"[[[[[[[[[[[[[[[[[[[[[[[[[[[[[[[[[[[[[[[[[[[[[[[[",
"[[[[[[[[[[[[[[[[[[[[[[[[[[[[[[[[[[[[[[[[[[[[[[[[",
"[[[[[[[[[[[[[[[[[[[[[[[[[[[[[[[[[[[[[[[[[[[[[[[[",
"[[[[[[[[[[[[[[[[[[[[[[[[[[[[[[[[[[[[[[[[[[[[[[[[",
"[[[[[[[[[[[[[[[[[[[[[[[[[[[[[[[[[[[[[[[[[[[[[[[[",
"[[[[[[[[[[[[[[[[[[[[[[[[[[[[[[[[[[[[[[[[[[[[[[[[",
"[[[[[[[[[[[[[[[[[[[[[[[[[[[[[[[[[[[[[[[[[[[[[[[[",
"[[[[[[[[[[[[[[[[[[********@[[[[[[[[[[[[[[[[[[[[[",
"[[[[[[[[[[[[[[[[[7eyiiiiiir[[[[[[[[[[[[[[[[[[[[[",
"[[[[[[[[[[[[[[[[*eSYWWWWWWn*[[[[[[[[[[[[[[[[[[[[",
"[[[[[[[[[[[[[[[*xCTE^`````RA6@[[[[[[[[[[[[[[[[[[",
"[[[[[[[[[[[[[[7eCLW^(]]]]]_/gt[[[[[[[[[[[[[[[[[[",
"[[[[[[[[[[[[[*eSYWW`]]]]]]]]]N*[[[[[[[[[[[[[[[[[",
"[[[[[[[[[[[[[*eST^`']]]]]]]]]N*[[[[[[[[[[[[[[[[[",
"[[[[[[[[[[[[[*eSY/]]]]]]]]]]]N*[[[[[[[[[[[[[[[[[",
"[[[[[[[[[[[[[*eSY/]]]]]]]]]]]N*[[[[[[[[[[[[[[[[[",
"[[[[[[[[[[[[[*eST/]]V0H]]]]]a1*[[[[[[[[[[[[[[[[[",
"[[[[[[[[[[[[[*eSY~)'N*vZ]]PN1**[[[[[[[[[[[[[[[[[",
"[[[[[[[[[[[[[*eSYWW`N**s]]N****[[[[[[[[[[[[[[[[[",
"[[[[[[[[[[[[[[[4BKWQUAAF!!UAAk*[[[[[[[[[[[[[[[[[",
"[[[[[[[[[[[[[[[%hmIIDnJDnJDnJb*[[[[[[[[[[[[[[[[[",
"[[[[[[[[[[[[[[[[*eSSz*Mz*Mz*Mz*[[[[[[[[[[[[[[[[[",
"[[[[[[[[[[[[[[[[[[44>*<>*<>*<2[[[[[[[[[[[[[[[[[[",
"[[[[[[[[[[[[[[[[[[%$1s;**93*#[[[[[[[[[[[[[[[[[[[",
"[[[[[[[[[[[[[[[[[[[*s]0**jd*[[[[[[[[[[[[[[[[[[[[",
"[[[[[[[[[[[[[[[[[[[[[0VGGw:[[[[[[[[[[[[[[[[[[[[[",
"[[[[[[[[[[[[[[[[[[[[@*G]]0&[[[[[[[[[[[[[[[[[[[[[",
"[[[[[[[[[[[[[[[[[[[***G]]0**[[[[[[[[[[[[[[[[[[[[",
"[[[[[[[[[[[[[[[[[[[***500-#[[[[[[[[[[[[[[[[[[[[[",
"[[[[[[[[[[[[[[[[[[[uss;**98[[[[[[[[[[[[[[[[[[[[[",
"[[[[[[[[[[[[[[[[[[*G]]0**jd*[[[[[[[[[[[[[[[[[[[[",
"[[[[[[[[[[[[[[[[[.*500=X*jlj>O[[[[[[[[[[[[[[[[[[",
"[[[[[[[[[[[[[[[[[ oooo[ opfc,o[[[[[[[[[[[[[[[[[[",
"[[[[[[[[[[[[[[[[[[[[[[[[[+qc,o[[[[[[[[[[[[[[[[[[",
"[[[[[[[[[[[[[[[[[[[[[[[[[[[[[[[[[[[[[[[[[[[[[[[[",
"[[[[[[[[[[[[[[[[[[[[[[[[[[[[[[[[[[[[[[[[[[[[[[[[",
"[[[[[[[[[[[[[[[[[[[[[[[[[[[[[[[[[[[[[[[[[[[[[[[[",
"[[[[[[[[[[[[[[[[[[[[[[[[[[[[[[[[[[[[[[[[[[[[[[[[",
"[[[[[[[[[[[[[[[[[[[[[[[[[[[[[[[[[[[[[[[[[[[[[[[[",
"[[[[[[[[[[[[[[[[[[[[[[[[[[[[[[[[[[[[[[[[[[[[[[[[",
"[[[[[[[[[[[[[[[[[[[[[[[[[[[[[[[[[[[[[[[[[[[[[[[[",
"[[[[[[[[[[[[[[[[[[[[[[[[[[[[[[[[[[[[[[[[[[[[[[[[",
"[[[[[[[[[[[[[[[[[[[[[[[[[[[[[[[[[[[[[[[[[[[[[[[[",
"[[[[[[[[[[[[[[[[[[[[[[[[[[[[[[[[[[[[[[[[[[[[[[[[",
"[[[[[[[[[[[[[[[[[[[[[[[[[[[[[[[[[[[[[[[[[[[[[[[[",
"[[[[[[[[[[[[[[[[[[[[[[[[[[[[[[[[[[[[[[[[[[[[[[[[",
"[[[[[[[[[[[[[[[[[[[[[[[[[[[[[[[[[[[[[[[[[[[[[[[[",
"[[[[[[[[[[[[[[[[[[[[[[[[[[[[[[[[[[[[[[[[[[[[[[[["
};
